<svg version="1.1" xmlns="http://www.w3.org/2000/svg" xmlns:xlink="http://www.w3.org/1999/xlink" stroke-linecap="round" stroke-linejoin="round" stroke-width="0" fill-rule="evenodd" clip-rule="evenodd" id="i2lIwPJ1NwT-6eWyGlmk_bottom" viewBox="0 -53999.89 53999.89 53999.89" width="53.99989mm" height="53.99989mm" class="w-100 h-100"><defs><style>.i2lIwPJ1NwT-6eWyGlmk_fr4 {color: #666666;}
.i2lIwPJ1NwT-6eWyGlmk_cu {color: #cccccc;}
.i2lIwPJ1NwT-6eWyGlmk_cf {color: #cc9933;}
.i2lIwPJ1NwT-6eWyGlmk_sm {color: #004200; opacity: 0.75;}
.i2lIwPJ1NwT-6eWyGlmk_ss {color: #ffffff;}
.i2lIwPJ1NwT-6eWyGlmk_sp {color: #999999;}
.i2lIwPJ1NwT-6eWyGlmk_out {color: #000000;}</style><rect x="-1250" y="-1250" width="2500" height="2500" id="YDLlFa4pYZZ48BHhYmUw_pad-12"/><circle cx="0" cy="0" r="900" id="YDLlFa4pYZZ48BHhYmUw_pad-13"/><rect x="-787.4" y="-787.4" width="1574.8" height="1574.8" id="YDLlFa4pYZZ48BHhYmUw_pad-14"/><circle cx="0" cy="0" r="787.4" id="YDLlFa4pYZZ48BHhYmUw_pad-15"/><circle cx="0" cy="0" r="700" id="YDLlFa4pYZZ48BHhYmUw_pad-16"/><circle cx="0" cy="0" r="1016" id="YDLlFa4pYZZ48BHhYmUw_pad-17"/><circle cx="0" cy="0" r="950.8" id="fh2Axxmvt0GEjvfKg1RZ_pad-27"/><circle cx="0" cy="0" r="838.2" id="fh2Axxmvt0GEjvfKg1RZ_pad-29"/><circle cx="0" cy="0" r="750.8" id="fh2Axxmvt0GEjvfKg1RZ_pad-30"/><circle cx="0" cy="0" r="1117.6" id="fh2Axxmvt0GEjvfKg1RZ_pad-31"/><circle cx="0" cy="0" r="350.5" id="apbMQ2ZoeKhPnfW1hbpq_pad-2"/><circle cx="0" cy="0" r="444.5" id="apbMQ2ZoeKhPnfW1hbpq_pad-3"/><circle cx="0" cy="0" r="500" id="apbMQ2ZoeKhPnfW1hbpq_pad-4"/><circle cx="0" cy="0" r="508" id="apbMQ2ZoeKhPnfW1hbpq_pad-5"/><circle cx="0" cy="0" r="1499" id="bnIVATljLV8jq8ILGeb6_pad-1"/><g id="i2lIwPJ1NwT-6eWyGlmk_bottom_copper"><path d="M 2032 -44449.97 3302 -44450 3937 -43815 3937 -43561 4064 -43434 4064 -14859 15240 -3683 15240 -2921 M 29845 -15240 31877 -13208 37973 -13208 40005 -15240 M 24892 -41910 23876 -41910 23114 -41148 23114 -21971 29845 -15240 M 24892 -41910 38862 -41910 47244 -50292 49911 -50292 50706.02 -49496.97 50706.02 -47371 M 24892 -34290 31115 -34290 34925 -30480 34924.97 -15239.92 M 43053 -28829 44323 -28829 52197 -36703 52197 -41879.52 50706.02 -43370.5" fill="none" stroke-width="508"/><use xlink:href="#YDLlFa4pYZZ48BHhYmUw_pad-12" x="29336.97" y="-51689"/><use xlink:href="#YDLlFa4pYZZ48BHhYmUw_pad-12" x="43053" y="-51689"/><use xlink:href="#YDLlFa4pYZZ48BHhYmUw_pad-12" x="43053" y="-28829"/><use xlink:href="#YDLlFa4pYZZ48BHhYmUw_pad-12" x="29337" y="-28828.97"/><use xlink:href="#YDLlFa4pYZZ48BHhYmUw_pad-12" x="32385" y="-28829"/><use xlink:href="#YDLlFa4pYZZ48BHhYmUw_pad-12" x="40005" y="-28829"/><use xlink:href="#YDLlFa4pYZZ48BHhYmUw_pad-13" x="49911" y="-29877"/><use xlink:href="#YDLlFa4pYZZ48BHhYmUw_pad-13" x="49911" y="-21176.99"/><use xlink:href="#YDLlFa4pYZZ48BHhYmUw_pad-13" x="49911" y="-9746.99"/><use xlink:href="#YDLlFa4pYZZ48BHhYmUw_pad-13" x="49911" y="-18447"/><use xlink:href="#YDLlFa4pYZZ48BHhYmUw_pad-14" x="42291" y="-23114"/><use xlink:href="#YDLlFa4pYZZ48BHhYmUw_pad-15" x="44831" y="-23114"/><use xlink:href="#YDLlFa4pYZZ48BHhYmUw_pad-14" x="15240" y="-2921"/><use xlink:href="#YDLlFa4pYZZ48BHhYmUw_pad-15" x="12700" y="-2921"/><use xlink:href="#YDLlFa4pYZZ48BHhYmUw_pad-15" x="10160" y="-2921"/><use xlink:href="#YDLlFa4pYZZ48BHhYmUw_pad-15" x="7620" y="-2921"/><use xlink:href="#YDLlFa4pYZZ48BHhYmUw_pad-16" x="39412.92" y="-23114"/><use xlink:href="#YDLlFa4pYZZ48BHhYmUw_pad-16" x="28913.07" y="-23114"/><use xlink:href="#YDLlFa4pYZZ48BHhYmUw_pad-17" x="37464.97" y="-5079.92"/><use xlink:href="#YDLlFa4pYZZ48BHhYmUw_pad-17" x="40004.94" y="-5079.92"/><use xlink:href="#YDLlFa4pYZZ48BHhYmUw_pad-17" x="42544.97" y="-5079.92"/><use xlink:href="#YDLlFa4pYZZ48BHhYmUw_pad-17" x="34924.97" y="-5079.92"/><use xlink:href="#YDLlFa4pYZZ48BHhYmUw_pad-17" x="32384.94" y="-5079.92"/><use xlink:href="#YDLlFa4pYZZ48BHhYmUw_pad-17" x="37464.97" y="-15239.92"/><use xlink:href="#YDLlFa4pYZZ48BHhYmUw_pad-17" x="34924.97" y="-15239.92"/><use xlink:href="#YDLlFa4pYZZ48BHhYmUw_pad-17" x="32384.97" y="-15239.92"/><use xlink:href="#YDLlFa4pYZZ48BHhYmUw_pad-17" x="29844.97" y="-15239.92"/><use xlink:href="#YDLlFa4pYZZ48BHhYmUw_pad-17" x="40004.97" y="-15239.92"/><use xlink:href="#YDLlFa4pYZZ48BHhYmUw_pad-17" x="42544.97" y="-15239.92"/><use xlink:href="#YDLlFa4pYZZ48BHhYmUw_pad-17" x="45084.97" y="-15239.92"/><path d="M 48006 -38369.95 48006 -40370.07 M 50706.02 -38369.95 50706.02 -40370.07 M 48006 -42370.45 48006 -44370.57 M 50706.02 -42370.45 50706.02 -44370.57 M 48006 -46370.95 48006 -48371.07 M 50706.02 -46370.95 50706.02 -48371.07" fill="none" stroke-width="1500"/><path d="M 2269.99 -26670 1794 -26670 M 25129.99 -44450 24654 -44450 M 25129.99 -41910 24654 -41910 M 25130.02 -39370 24653.97 -39370 M 25129.99 -36830 24654 -36830 M 25129.99 -34290 24654 -34290 M 25130.02 -31750 24653.97 -31750 M 25129.99 -29210 24654 -29210 M 25129.99 -26670 24654 -26670 M 2269.99 -44450 1794 -44450 M 2269.99 -41910 1794 -41910 M 2270.02 -39370 1793.97 -39370 M 2269.99 -36830 1794 -36830 M 2269.99 -34290 1794 -34290 M 2270.02 -31750 1793.97 -31750 M 2269.99 -29210 1794 -29210" fill="none" stroke-width="1524"/></g><g id="i2lIwPJ1NwT-6eWyGlmk_bottom_soldermask"><path d="M 48006 -38369.95 48006 -40370.07 M 50706.02 -38369.95 50706.02 -40370.07 M 48006 -42370.45 48006 -44370.57 M 50706.02 -42370.45 50706.02 -44370.57 M 48006 -46370.95 48006 -48371.07 M 50706.02 -46370.95 50706.02 -48371.07" fill="none" stroke-width="1601.6"/><path d="M 2269.99 -26670 1794 -26670 M 25129.99 -44450 24654 -44450 M 25129.99 -41910 24654 -41910 M 25130.02 -39370 24653.97 -39370 M 25129.99 -36830 24654 -36830 M 25129.99 -34290 24654 -34290 M 25130.02 -31750 24653.97 -31750 M 25129.99 -29210 24654 -29210 M 25129.99 -26670 24654 -26670 M 2269.99 -44450 1794 -44450 M 2269.99 -41910 1794 -41910 M 2270.02 -39370 1793.97 -39370 M 2269.99 -36830 1794 -36830 M 2269.99 -34290 1794 -34290 M 2270.02 -31750 1793.97 -31750 M 2269.99 -29210 1794 -29210" fill="none" stroke-width="1727.2"/><path d="M 28087.01 -52989.78 28071.77 -52987.24 28056.53 -52979.62 28046.37 -52969.46 28038.75 -52954.22 28036.21 -52938.98 28036.52 -52938.68 28036.52 -50439.31 28036.21 -50438.98 28038.75 -50423.74 28046.37 -50408.5 28056.53 -50398.34 28071.77 -50390.72 28087.01 -50388.18 28087.31 -50388.52 30586.68 -50388.52 30587.01 -50388.18 30602.25 -50390.72 30617.49 -50398.34 30627.65 -50408.5 30635.27 -50423.74 30637.81 -50438.98 30637.47 -50439.31 30637.47 -52938.68 30637.81 -52938.98 30635.27 -52954.22 30627.65 -52969.46 30617.49 -52979.62 30602.25 -52987.24 30587.01 -52989.78 30586.68 -52989.47 28087.31 -52989.47"/><path d="M 41803.01 -52989.78 41787.77 -52987.24 41772.53 -52979.62 41762.37 -52969.46 41754.75 -52954.22 41752.21 -52938.98 41752.52 -52938.68 41752.52 -50439.31 41752.21 -50438.98 41754.75 -50423.74 41762.37 -50408.5 41772.53 -50398.34 41787.77 -50390.72 41803.01 -50388.18 41803.31 -50388.52 44302.68 -50388.52 44303.01 -50388.18 44318.25 -50390.72 44333.49 -50398.34 44343.65 -50408.5 44351.27 -50423.74 44353.81 -50438.98 44353.47 -50439.31 44353.47 -52938.68 44353.81 -52938.98 44351.27 -52954.22 44343.65 -52969.46 44333.49 -52979.62 44318.25 -52987.24 44303.01 -52989.78 44302.68 -52989.47 41803.31 -52989.47"/><path d="M 41803.01 -30129.78 41787.77 -30127.24 41772.53 -30119.62 41762.37 -30109.46 41754.75 -30094.22 41752.21 -30078.98 41752.52 -30078.68 41752.52 -27579.31 41752.21 -27578.98 41754.75 -27563.74 41762.37 -27548.5 41772.53 -27538.34 41787.77 -27530.72 41803.01 -27528.18 41803.31 -27528.52 44302.68 -27528.52 44303.01 -27528.18 44318.25 -27530.72 44333.49 -27538.34 44343.65 -27548.5 44351.27 -27563.74 44353.81 -27578.98 44353.47 -27579.31 44353.47 -30078.68 44353.81 -30078.98 44351.27 -30094.22 44343.65 -30109.46 44333.49 -30119.62 44318.25 -30127.24 44303.01 -30129.78 44302.68 -30129.47 41803.31 -30129.47"/><path d="M 28087.01 -30129.78 28071.77 -30127.24 28056.53 -30119.62 28046.37 -30109.46 28038.75 -30094.22 28036.21 -30078.98 28036.52 -30078.68 28036.52 -27579.31 28036.21 -27578.98 28038.75 -27563.74 28046.37 -27548.5 28056.53 -27538.34 28071.77 -27530.72 28087.01 -27528.18 28087.31 -27528.52 30586.68 -27528.52 30587.01 -27528.18 30602.25 -27530.72 30617.49 -27538.34 30627.65 -27548.5 30635.27 -27563.74 30637.81 -27578.98 30637.47 -27579.31 30637.47 -30078.68 30637.81 -30078.98 30635.27 -30094.22 30627.65 -30109.46 30617.49 -30119.62 30602.25 -30127.24 30587.01 -30129.78 30586.68 -30129.47 28087.31 -30129.47"/><path d="M 31135.01 -30129.78 31119.77 -30127.24 31104.53 -30119.62 31094.37 -30109.46 31086.75 -30094.22 31084.21 -30078.98 31084.52 -30078.68 31084.52 -27579.31 31084.21 -27578.98 31086.75 -27563.74 31094.37 -27548.5 31104.53 -27538.34 31119.77 -27530.72 31135.01 -27528.18 31135.31 -27528.52 33634.68 -27528.52 33635.01 -27528.18 33650.25 -27530.72 33665.49 -27538.34 33675.65 -27548.5 33683.27 -27563.74 33685.81 -27578.98 33685.47 -27579.31 33685.47 -30078.68 33685.81 -30078.98 33683.27 -30094.22 33675.65 -30109.46 33665.49 -30119.62 33650.25 -30127.24 33635.01 -30129.78 33634.68 -30129.47 31135.31 -30129.47"/><path d="M 38755.01 -30129.78 38739.77 -30127.24 38724.53 -30119.62 38714.37 -30109.46 38706.75 -30094.22 38704.21 -30078.98 38704.52 -30078.68 38704.52 -27579.31 38704.21 -27578.98 38706.75 -27563.74 38714.37 -27548.5 38724.53 -27538.34 38739.77 -27530.72 38755.01 -27528.18 38755.31 -27528.52 41254.68 -27528.52 41255.01 -27528.18 41270.25 -27530.72 41285.49 -27538.34 41295.65 -27548.5 41303.27 -27563.74 41305.81 -27578.98 41305.47 -27579.31 41305.47 -30078.68 41305.81 -30078.98 41303.27 -30094.22 41295.65 -30109.46 41285.49 -30119.62 41270.25 -30127.24 41255.01 -30129.78 41254.68 -30129.47 38755.31 -30129.47"/><use xlink:href="#fh2Axxmvt0GEjvfKg1RZ_pad-27" x="49911" y="-29877"/><use xlink:href="#fh2Axxmvt0GEjvfKg1RZ_pad-27" x="49911" y="-21176.99"/><use xlink:href="#fh2Axxmvt0GEjvfKg1RZ_pad-27" x="49911" y="-9746.99"/><use xlink:href="#fh2Axxmvt0GEjvfKg1RZ_pad-27" x="49911" y="-18447"/><path d="M 41503.59 -23952.2 41488.35 -23949.65 41473.11 -23942.04 41462.95 -23931.87 41455.33 -23916.63 41452.79 -23901.39 41452.79 -23901.39 41452.79 -22326.6 41452.79 -22326.6 41455.33 -22311.36 41462.95 -22296.12 41473.11 -22285.95 41488.35 -22278.34 41503.59 -22275.79 43078.4 -22275.79 43093.64 -22278.34 43108.88 -22285.95 43119.04 -22296.12 43126.66 -22311.36 43129.2 -22326.6 43129.2 -22326.6 43129.2 -23901.39 43129.2 -23901.39 43126.66 -23916.63 43119.04 -23931.87 43108.88 -23942.04 43093.64 -23949.65 43078.4 -23952.2"/><use xlink:href="#fh2Axxmvt0GEjvfKg1RZ_pad-29" x="44831" y="-23114"/><path d="M 14452.6 -3759.2 14437.36 -3756.65 14422.12 -3749.04 14411.95 -3738.87 14404.34 -3723.63 14401.79 -3708.39 14401.79 -2133.6 14404.34 -2118.36 14411.95 -2103.12 14422.12 -2092.95 14437.36 -2085.34 14452.6 -2082.79 16027.39 -2082.79 16042.63 -2085.34 16057.87 -2092.95 16068.04 -2103.12 16075.65 -2118.36 16078.2 -2133.6 16078.2 -3708.39 16075.65 -3723.63 16068.04 -3738.87 16057.87 -3749.04 16042.63 -3756.65 16027.39 -3759.2"/><use xlink:href="#fh2Axxmvt0GEjvfKg1RZ_pad-29" x="12700" y="-2921"/><use xlink:href="#fh2Axxmvt0GEjvfKg1RZ_pad-29" x="10160" y="-2921"/><use xlink:href="#fh2Axxmvt0GEjvfKg1RZ_pad-29" x="7620" y="-2921"/><use xlink:href="#fh2Axxmvt0GEjvfKg1RZ_pad-30" x="39412.92" y="-23114"/><use xlink:href="#fh2Axxmvt0GEjvfKg1RZ_pad-30" x="28913.07" y="-23114"/><use xlink:href="#fh2Axxmvt0GEjvfKg1RZ_pad-31" x="37464.97" y="-5079.92"/><use xlink:href="#fh2Axxmvt0GEjvfKg1RZ_pad-31" x="40004.94" y="-5079.92"/><use xlink:href="#fh2Axxmvt0GEjvfKg1RZ_pad-31" x="42544.97" y="-5079.92"/><use xlink:href="#fh2Axxmvt0GEjvfKg1RZ_pad-31" x="34924.97" y="-5079.92"/><use xlink:href="#fh2Axxmvt0GEjvfKg1RZ_pad-31" x="32384.94" y="-5079.92"/><use xlink:href="#fh2Axxmvt0GEjvfKg1RZ_pad-31" x="37464.97" y="-15239.92"/><use xlink:href="#fh2Axxmvt0GEjvfKg1RZ_pad-31" x="34924.97" y="-15239.92"/><use xlink:href="#fh2Axxmvt0GEjvfKg1RZ_pad-31" x="32384.97" y="-15239.92"/><use xlink:href="#fh2Axxmvt0GEjvfKg1RZ_pad-31" x="29844.97" y="-15239.92"/><use xlink:href="#fh2Axxmvt0GEjvfKg1RZ_pad-31" x="40004.97" y="-15239.92"/><use xlink:href="#fh2Axxmvt0GEjvfKg1RZ_pad-31" x="42544.97" y="-15239.92"/><use xlink:href="#fh2Axxmvt0GEjvfKg1RZ_pad-31" x="45084.97" y="-15239.92"/></g><g id="i2lIwPJ1NwT-6eWyGlmk_bottom_silkscreen"><path d="M 40582.24 -10390.91 40628.41 -10298.55 40720.79 -10206.17 40813.15 -10160 40997.86 -10160 41090.24 -10206.17 41182.62 -10298.55 41228.79 -10390.91 41274.97 -10529.46 41274.97 -10760.37 41228.79 -10898.91 41182.62 -10991.26 41090.24 -11083.64 40997.88 -11129.82 40813.15 -11129.82 40720.79 -11083.64 40628.39 -10991.26 40582.24 -10898.91 40582.24 -10760.35 M 40813.15 -10760.37 40582.24 -10760.35 M 40277.44 -10160 39907.99 -10621.82 39907.99 -11129.82 M 39538.52 -10160 39907.99 -10621.82 M 39233.72 -10714.17 38402.46 -10714.17 M 38097.68 -10160 38097.66 -11129.82 M 38097.68 -10160 37682.04 -10160 37543.46 -10206.17 37497.3 -10252.37 37451.13 -10344.73 37451.13 -10437.08 37497.3 -10529.46 37543.48 -10575.64 37682.01 -10621.82 M 38097.66 -10621.82 37682.01 -10621.82 37543.48 -10668 37497.3 -10714.17 37451.13 -10806.53 37451.13 -10945.08 37497.3 -11037.46 37543.48 -11083.64 37682.01 -11129.82 38097.66 -11129.82 M 37146.35 -10160 37146.33 -11129.82 M 37146.35 -10160 36776.86 -11129.82 M 36407.42 -10160 36776.86 -11129.82 M 36407.42 -10160 36407.42 -11129.82 M 36102.62 -10160 36102.62 -11129.82 M 35797.82 -10344.73 35705.44 -10298.55 35566.9 -10160 35566.9 -11129.82 M 34707.93 -10298.55 34754.08 -10206.17 34892.61 -10160 34985.02 -10160 35123.55 -10206.17 35215.93 -10344.73 35262.1 -10575.64 35262.1 -10806.53 35215.93 -10991.26 35123.55 -11083.64 34985.02 -11129.82 34938.81 -11129.82 34800.28 -11083.64 34707.93 -10991.26 34661.72 -10852.73 34661.72 -10806.55 34707.93 -10668.02 34800.28 -10575.67 34938.81 -10529.49 34985.02 -10529.46 35123.55 -10575.64 35215.93 -10668.02 35262.1 -10806.53 M 34079.84 -10160 34218.39 -10206.17 34310.75 -10344.73 34356.92 -10575.64 34356.92 -10714.17 34310.72 -10945.08 34218.39 -11083.64 34079.84 -11129.82 33987.48 -11129.82 33848.92 -11083.64 33756.57 -10945.08 33710.39 -10714.17 33710.39 -10575.64 33756.57 -10344.73 33848.92 -10206.17 33987.48 -10160 34079.84 -10160" fill="none" stroke-width="203.2"/><path d="M 46355 -15240 45085 -16510 29844.51 -16509.31 28574.51 -15239.31 28574.51 -5079.31 29844.51 -3809.31 45085 -3810 46355 -5080 46355 -15240" fill="none" stroke-width="254"/></g><g id="i2lIwPJ1NwT-6eWyGlmk_bottom_drill1"><path d="M 48006 -40020 48006 -38720 M 50706 -40020 50706 -38720 M 48006 -44020 48006 -42720 M 50706 -44020 50706 -42720 M 48006 -48020 48006 -46720 M 50706 -48020 50706 -46720" fill="none" stroke-width="600"/><use xlink:href="#apbMQ2ZoeKhPnfW1hbpq_pad-2" x="39413" y="-23114"/><use xlink:href="#apbMQ2ZoeKhPnfW1hbpq_pad-2" x="28913" y="-23114"/><use xlink:href="#apbMQ2ZoeKhPnfW1hbpq_pad-3" x="42291" y="-23114"/><use xlink:href="#apbMQ2ZoeKhPnfW1hbpq_pad-3" x="44831" y="-23114"/><use xlink:href="#apbMQ2ZoeKhPnfW1hbpq_pad-3" x="15240" y="-2921"/><use xlink:href="#apbMQ2ZoeKhPnfW1hbpq_pad-3" x="12700" y="-2921"/><use xlink:href="#apbMQ2ZoeKhPnfW1hbpq_pad-3" x="10160" y="-2921"/><use xlink:href="#apbMQ2ZoeKhPnfW1hbpq_pad-3" x="7620" y="-2921"/><use xlink:href="#apbMQ2ZoeKhPnfW1hbpq_pad-4" x="49911" y="-29877"/><use xlink:href="#apbMQ2ZoeKhPnfW1hbpq_pad-4" x="49911" y="-21177"/><use xlink:href="#apbMQ2ZoeKhPnfW1hbpq_pad-4" x="49911" y="-9747"/><use xlink:href="#apbMQ2ZoeKhPnfW1hbpq_pad-4" x="49911" y="-18447"/><path d="M 29337 -51692 29337 -51686 M 43053 -51692 43053 -51686 M 43053 -28832 43053 -28826 M 29337 -28832 29337 -28826 M 32385 -28832 32385 -28826 M 40005 -28832 40005 -28826" fill="none" stroke-width="1000"/><use xlink:href="#apbMQ2ZoeKhPnfW1hbpq_pad-5" x="37465" y="-5080"/><use xlink:href="#apbMQ2ZoeKhPnfW1hbpq_pad-5" x="40005" y="-5080"/><use xlink:href="#apbMQ2ZoeKhPnfW1hbpq_pad-5" x="42545" y="-5080"/><use xlink:href="#apbMQ2ZoeKhPnfW1hbpq_pad-5" x="34925" y="-5080"/><use xlink:href="#apbMQ2ZoeKhPnfW1hbpq_pad-5" x="32385" y="-5080"/><use xlink:href="#apbMQ2ZoeKhPnfW1hbpq_pad-5" x="37465" y="-15240"/><use xlink:href="#apbMQ2ZoeKhPnfW1hbpq_pad-5" x="34925" y="-15240"/><use xlink:href="#apbMQ2ZoeKhPnfW1hbpq_pad-5" x="32385" y="-15240"/><use xlink:href="#apbMQ2ZoeKhPnfW1hbpq_pad-5" x="29845" y="-15240"/><use xlink:href="#apbMQ2ZoeKhPnfW1hbpq_pad-5" x="40005" y="-15240"/><use xlink:href="#apbMQ2ZoeKhPnfW1hbpq_pad-5" x="42545" y="-15240"/><use xlink:href="#apbMQ2ZoeKhPnfW1hbpq_pad-5" x="45085" y="-15240"/><use xlink:href="#apbMQ2ZoeKhPnfW1hbpq_pad-5" x="2032" y="-26670"/><use xlink:href="#apbMQ2ZoeKhPnfW1hbpq_pad-5" x="24892" y="-44450"/><use xlink:href="#apbMQ2ZoeKhPnfW1hbpq_pad-5" x="24892" y="-41910"/><use xlink:href="#apbMQ2ZoeKhPnfW1hbpq_pad-5" x="24892" y="-39370"/><use xlink:href="#apbMQ2ZoeKhPnfW1hbpq_pad-5" x="24892" y="-36830"/><use xlink:href="#apbMQ2ZoeKhPnfW1hbpq_pad-5" x="24892" y="-34290"/><use xlink:href="#apbMQ2ZoeKhPnfW1hbpq_pad-5" x="24892" y="-31750"/><use xlink:href="#apbMQ2ZoeKhPnfW1hbpq_pad-5" x="24892" y="-29210"/><use xlink:href="#apbMQ2ZoeKhPnfW1hbpq_pad-5" x="24892" y="-26670"/><use xlink:href="#apbMQ2ZoeKhPnfW1hbpq_pad-5" x="2032" y="-44450"/><use xlink:href="#apbMQ2ZoeKhPnfW1hbpq_pad-5" x="2032" y="-41910"/><use xlink:href="#apbMQ2ZoeKhPnfW1hbpq_pad-5" x="2032" y="-39370"/><use xlink:href="#apbMQ2ZoeKhPnfW1hbpq_pad-5" x="2032" y="-36830"/><use xlink:href="#apbMQ2ZoeKhPnfW1hbpq_pad-5" x="2032" y="-34290"/><use xlink:href="#apbMQ2ZoeKhPnfW1hbpq_pad-5" x="2032" y="-31750"/><use xlink:href="#apbMQ2ZoeKhPnfW1hbpq_pad-5" x="2032" y="-29210"/></g><g id="i2lIwPJ1NwT-6eWyGlmk_bottom_drill2"><use xlink:href="#bnIVATljLV8jq8ILGeb6_pad-1" x="43815" y="-7620"/><use xlink:href="#bnIVATljLV8jq8ILGeb6_pad-1" x="31115" y="-7620"/></g><clipPath id="i2lIwPJ1NwT-6eWyGlmk_bottom_outline"><path d="M 0 0 53999.89 0 53999.89 -53999.89 0 -53999.89 0 0" fill="none" stroke-width="254"/></clipPath><mask id="i2lIwPJ1NwT-6eWyGlmk_bottom_mech-mask"><g fill="#000" stroke="#000"><rect x="0" y="-53999.89" width="53999.89" height="53999.89" fill="#fff"/><use xlink:href="#i2lIwPJ1NwT-6eWyGlmk_bottom_drill1"/><use xlink:href="#i2lIwPJ1NwT-6eWyGlmk_bottom_drill2"/></g></mask><mask id="i2lIwPJ1NwT-6eWyGlmk_bottom_cf-mask"><g fill="#fff" stroke="#fff"><use xlink:href="#i2lIwPJ1NwT-6eWyGlmk_bottom_soldermask"/></g></mask><mask id="i2lIwPJ1NwT-6eWyGlmk_bottom_sm-mask"><g fill="#000" stroke="#000"><rect x="0" y="-53999.89" width="53999.89" height="53999.89" fill="#fff"/><use xlink:href="#i2lIwPJ1NwT-6eWyGlmk_bottom_soldermask"/></g></mask></defs><g transform="translate(0,-53999.89) scale(1,-1)"><g mask="url(#i2lIwPJ1NwT-6eWyGlmk_bottom_mech-mask)" clip-path="url(#i2lIwPJ1NwT-6eWyGlmk_bottom_outline)" transform="translate(53999.89,0) scale(-1,1)"><rect x="0" y="-53999.89" width="53999.89" height="53999.89" fill="currentColor" class="i2lIwPJ1NwT-6eWyGlmk_fr4"/><use xlink:href="#i2lIwPJ1NwT-6eWyGlmk_bottom_copper" fill="currentColor" stroke="currentColor" class="i2lIwPJ1NwT-6eWyGlmk_cu"/><use xlink:href="#i2lIwPJ1NwT-6eWyGlmk_bottom_copper" fill="currentColor" stroke="currentColor" class="i2lIwPJ1NwT-6eWyGlmk_cf" mask="url(#i2lIwPJ1NwT-6eWyGlmk_bottom_cf-mask)"/><g mask="url(#i2lIwPJ1NwT-6eWyGlmk_bottom_sm-mask)"><rect x="0" y="-53999.89" width="53999.89" height="53999.89" fill="currentColor" class="i2lIwPJ1NwT-6eWyGlmk_sm"/><use xlink:href="#i2lIwPJ1NwT-6eWyGlmk_bottom_silkscreen" fill="currentColor" stroke="currentColor" class="i2lIwPJ1NwT-6eWyGlmk_ss"/></g></g></g></svg>