<svg version="1.1" xmlns="http://www.w3.org/2000/svg" xmlns:xlink="http://www.w3.org/1999/xlink" stroke-linecap="round" stroke-linejoin="round" stroke-width="0" fill-rule="evenodd" clip-rule="evenodd" id="i2lIwPJ1NwT-6eWyGlmk_top" viewBox="0 -53999.89 53999.89 53999.89" width="53.99989mm" height="53.99989mm" class="w-100 h-100"><defs><style>.i2lIwPJ1NwT-6eWyGlmk_fr4 {color: #666666;}
.i2lIwPJ1NwT-6eWyGlmk_cu {color: #cccccc;}
.i2lIwPJ1NwT-6eWyGlmk_cf {color: #cc9933;}
.i2lIwPJ1NwT-6eWyGlmk_sm {color: #004200; opacity: 0.75;}
.i2lIwPJ1NwT-6eWyGlmk_ss {color: #ffffff;}
.i2lIwPJ1NwT-6eWyGlmk_sp {color: #999999;}
.i2lIwPJ1NwT-6eWyGlmk_out {color: #000000;}</style><rect x="-1250" y="-1250" width="2500" height="2500" id="Am7uoYmZZXrvOUtcCodD_pad-12"/><circle cx="0" cy="0" r="900" id="Am7uoYmZZXrvOUtcCodD_pad-13"/><rect x="-787.4" y="-787.4" width="1574.8" height="1574.8" id="Am7uoYmZZXrvOUtcCodD_pad-14"/><circle cx="0" cy="0" r="787.4" id="Am7uoYmZZXrvOUtcCodD_pad-15"/><circle cx="0" cy="0" r="700" id="Am7uoYmZZXrvOUtcCodD_pad-16"/><circle cx="0" cy="0" r="1016" id="Am7uoYmZZXrvOUtcCodD_pad-17"/><circle cx="0" cy="0" r="950.8" id="oP2MsBzwzKkp5C4UwSg7_pad-27"/><circle cx="0" cy="0" r="838.2" id="oP2MsBzwzKkp5C4UwSg7_pad-29"/><circle cx="0" cy="0" r="750.8" id="oP2MsBzwzKkp5C4UwSg7_pad-30"/><circle cx="0" cy="0" r="1117.6" id="oP2MsBzwzKkp5C4UwSg7_pad-31"/><circle cx="0" cy="0" r="350.5" id="apbMQ2ZoeKhPnfW1hbpq_pad-2"/><circle cx="0" cy="0" r="444.5" id="apbMQ2ZoeKhPnfW1hbpq_pad-3"/><circle cx="0" cy="0" r="500" id="apbMQ2ZoeKhPnfW1hbpq_pad-4"/><circle cx="0" cy="0" r="508" id="apbMQ2ZoeKhPnfW1hbpq_pad-5"/><circle cx="0" cy="0" r="1499" id="bnIVATljLV8jq8ILGeb6_pad-1"/><g id="i2lIwPJ1NwT-6eWyGlmk_top_copper"><path d="M 24892 -31750 25146 -31750 26924 -29972 26924 -27178 27813 -26289 28956 -26289 37465 -17780 37465 -15239.94 M 7620 -2921 10541 -5842 21590 -5842 27559 -11811 33274 -11811 34925 -13462 34925 -15240 M 10160 -2921 12319 -5080 21971 -5080 27940 -11049 35687 -11049 37465 -12827 37465 -15240 M 12700 -2921 14097 -4318 22352 -4318 28321 -10287 37719 -10287 40005 -12573 40005 -15240 M 15240 -2921 22098 -2921 28702 -9525 38227 -9525 42545 -13843 42545 -15240 M 49911 -21175.97 49911 -26924 32385 -44450 24892 -44450 M 29337 -28828.97 29337 -28321 37211 -20447 44577 -20447 49911 -15113 49911 -9746.99 M 49911 -18447 49911 -21176.99 M 2032 -29210 21336 -29210 22733 -27813 22733 -23876 23495 -23114 28912.81 -23114 M 32385 -28829 38100 -23114 39413.18 -23114 M 42291 -23114 39412.92 -23114 M 40005 -28829 40005 -27940 44831 -23114 M 29336.97 -51689 29336.97 -50451.02 49911 -29877" fill="none" stroke-width="508"/><use xlink:href="#Am7uoYmZZXrvOUtcCodD_pad-12" x="29336.97" y="-51689"/><use xlink:href="#Am7uoYmZZXrvOUtcCodD_pad-12" x="43053" y="-51689"/><use xlink:href="#Am7uoYmZZXrvOUtcCodD_pad-12" x="43053" y="-28829"/><use xlink:href="#Am7uoYmZZXrvOUtcCodD_pad-12" x="29337" y="-28828.97"/><use xlink:href="#Am7uoYmZZXrvOUtcCodD_pad-12" x="32385" y="-28829"/><use xlink:href="#Am7uoYmZZXrvOUtcCodD_pad-12" x="40005" y="-28829"/><use xlink:href="#Am7uoYmZZXrvOUtcCodD_pad-13" x="49911" y="-29877"/><use xlink:href="#Am7uoYmZZXrvOUtcCodD_pad-13" x="49911" y="-21176.99"/><use xlink:href="#Am7uoYmZZXrvOUtcCodD_pad-13" x="49911" y="-9746.99"/><use xlink:href="#Am7uoYmZZXrvOUtcCodD_pad-13" x="49911" y="-18447"/><use xlink:href="#Am7uoYmZZXrvOUtcCodD_pad-14" x="42291" y="-23114"/><use xlink:href="#Am7uoYmZZXrvOUtcCodD_pad-15" x="44831" y="-23114"/><use xlink:href="#Am7uoYmZZXrvOUtcCodD_pad-14" x="15240" y="-2921"/><use xlink:href="#Am7uoYmZZXrvOUtcCodD_pad-15" x="12700" y="-2921"/><use xlink:href="#Am7uoYmZZXrvOUtcCodD_pad-15" x="10160" y="-2921"/><use xlink:href="#Am7uoYmZZXrvOUtcCodD_pad-15" x="7620" y="-2921"/><use xlink:href="#Am7uoYmZZXrvOUtcCodD_pad-16" x="39412.92" y="-23114"/><use xlink:href="#Am7uoYmZZXrvOUtcCodD_pad-16" x="28913.07" y="-23114"/><use xlink:href="#Am7uoYmZZXrvOUtcCodD_pad-17" x="37464.97" y="-5079.92"/><use xlink:href="#Am7uoYmZZXrvOUtcCodD_pad-17" x="40004.94" y="-5079.92"/><use xlink:href="#Am7uoYmZZXrvOUtcCodD_pad-17" x="42544.97" y="-5079.92"/><use xlink:href="#Am7uoYmZZXrvOUtcCodD_pad-17" x="34924.97" y="-5079.92"/><use xlink:href="#Am7uoYmZZXrvOUtcCodD_pad-17" x="32384.94" y="-5079.92"/><use xlink:href="#Am7uoYmZZXrvOUtcCodD_pad-17" x="37464.97" y="-15239.92"/><use xlink:href="#Am7uoYmZZXrvOUtcCodD_pad-17" x="34924.97" y="-15239.92"/><use xlink:href="#Am7uoYmZZXrvOUtcCodD_pad-17" x="32384.97" y="-15239.92"/><use xlink:href="#Am7uoYmZZXrvOUtcCodD_pad-17" x="29844.97" y="-15239.92"/><use xlink:href="#Am7uoYmZZXrvOUtcCodD_pad-17" x="40004.97" y="-15239.92"/><use xlink:href="#Am7uoYmZZXrvOUtcCodD_pad-17" x="42544.97" y="-15239.92"/><use xlink:href="#Am7uoYmZZXrvOUtcCodD_pad-17" x="45084.97" y="-15239.92"/><path d="M 48006 -38369.95 48006 -40370.07 M 50706.02 -38369.95 50706.02 -40370.07 M 48006 -42370.45 48006 -44370.57 M 50706.02 -42370.45 50706.02 -44370.57 M 48006 -46370.95 48006 -48371.07 M 50706.02 -46370.95 50706.02 -48371.07" fill="none" stroke-width="1500"/><path d="M 2269.99 -26670 1794 -26670 M 25129.99 -44450 24654 -44450 M 25129.99 -41910 24654 -41910 M 25130.02 -39370 24653.97 -39370 M 25129.99 -36830 24654 -36830 M 25129.99 -34290 24654 -34290 M 25130.02 -31750 24653.97 -31750 M 25129.99 -29210 24654 -29210 M 25129.99 -26670 24654 -26670 M 2269.99 -44450 1794 -44450 M 2269.99 -41910 1794 -41910 M 2270.02 -39370 1793.97 -39370 M 2269.99 -36830 1794 -36830 M 2269.99 -34290 1794 -34290 M 2270.02 -31750 1793.97 -31750 M 2269.99 -29210 1794 -29210" fill="none" stroke-width="1524"/></g><g id="i2lIwPJ1NwT-6eWyGlmk_top_silkscreen"><path d="M 15743.91 -5144.79 15743.91 -5652.79 15375.61 -5375.93 15375.61 -5515.63 15327.35 -5607.07 15281.63 -5652.79 15144.47 -5698.51 15050.49 -5698.51 14913.33 -5652.79 14819.35 -5561.32 14773.63 -5421.65 14773.63 -5284.49 14819.35 -5144.79 14867.61 -5099.1 14959.05 -5053.35 M 15743.91 -6003.31 14773.63 -6374.15 M 15743.91 -6742.45 14773.63 -6374.15 M 15743.91 -7141.23 15743.91 -7649.23 15375.61 -7369.83 15375.61 -7509.53 15327.35 -7600.97 15281.63 -7649.23 15144.47 -7694.93 15050.49 -7694.95 14913.33 -7649.23 14819.35 -7555.22 14773.63 -7418.09 14773.63 -7278.39 14819.35 -7141.26 14867.61 -7093 14959.05 -7047.25 M 12972.77 -5718.8 13064.21 -5673.09 13158.19 -5581.64 13203.91 -5490.2 13203.91 -5304.79 13158.19 -5210.8 13064.21 -5119.37 12972.77 -5073.64 12835.58 -5027.93 12604.47 -5027.93 12464.77 -5073.64 12373.35 -5119.37 12279.35 -5210.8 12233.65 -5304.79 12233.63 -5490.18 12279.35 -5581.64 12373.35 -5673.09 12464.77 -5718.8 12604.47 -5718.8 M 12604.47 -5490.2 12604.47 -5718.8 M 13203.91 -6023.61 12233.63 -6023.63 M 13203.91 -6023.61 12233.63 -6671.3 M 13203.91 -6671.3 12233.63 -6671.3 M 13203.91 -6976.13 12233.63 -6976.11 M 13203.91 -6976.13 13203.91 -7298.69 13158.19 -7438.38 13064.18 -7529.82 12972.77 -7575.54 12835.61 -7623.8 12604.47 -7623.8 12464.77 -7575.54 12373.33 -7529.82 12279.35 -7438.38 12233.63 -7298.66 12233.63 -6976.11 M 10621.21 -5648.4 10715.19 -5556.96 10760.91 -5417.26 10760.91 -5234.38 10715.19 -5094.68 10621.21 -5003.24 10529.77 -5003.24 10438.35 -5048.96 10392.61 -5094.68 10344.35 -5186.12 10252.91 -5465.52 10207.19 -5556.96 10161.47 -5602.68 10067.49 -5648.4 9930.33 -5648.4 9836.35 -5556.96 9790.63 -5417.26 9790.63 -5234.38 9836.35 -5094.68 9930.33 -5003.24 M 10529.77 -6646.62 10621.21 -6600.9 10715.19 -6506.92 10760.91 -6415.48 10760.91 -6230.06 10715.19 -6138.62 10621.21 -6047.18 10529.77 -5998.92 10392.61 -5953.2 10161.47 -5953.2 10021.77 -5998.92 9930.33 -6047.18 9836.35 -6138.62 9790.63 -6230.06 9790.63 -6415.48 9836.35 -6506.92 9930.33 -6600.9 10021.77 -6646.62 M 10760.91 -6951.42 9790.63 -6951.42 9790.63 -7505.14 M 8085.83 -5599.48 8179.81 -5508.04 8225.53 -5368.34 8225.53 -5182.92 8179.81 -5045.76 8085.83 -4951.78 7994.39 -4951.8 7902.95 -5000.06 7854.69 -5045.76 7808.97 -5137.2 7717.53 -5414.06 7671.81 -5508.04 7623.55 -5553.76 7532.11 -5599.48 7394.95 -5599.48 7300.97 -5508.04 7255.25 -5368.34 7255.25 -5182.92 7300.97 -5045.76 7394.95 -4951.78 M 8225.53 -5904.28 7255.25 -5904.28 M 8225.53 -5904.28 8225.53 -6226.86 8179.81 -6366.53 8085.83 -6458 7994.39 -6503.72 7854.69 -6551.98 7623.55 -6551.98 7486.39 -6503.72 7394.93 -6458 7301 -6366.56 7255.25 -6226.86 7255.25 -5904.28 M 8225.53 -7225.08 7255.25 -6856.78 M 8225.53 -7225.08 7255.25 -7593.38 M 7577.86 -6993.94 7577.83 -7456.22 M 41818.56 -20703.54 41818.56 -21534.12 M 41402 -21120.1 42232.58 -21120.1 M 44670.97 -21120.1 45504.09 -21120.1" fill="none" stroke-width="203.2"/><path d="M 36062.91 -42527.21 35958.77 -42580.55 35854.66 -42684.7 35803.84 -42786.29 35803.84 -42994.57 35854.63 -43098.71 35958.77 -43202.86 36062.91 -43256.2 36220.4 -43307 36479.45 -43307 36634.41 -43256.2 36738.56 -43202.86 36842.7 -43098.71 36893.5 -42994.57 36893.5 -42786.29 36842.7 -42684.7 36738.56 -42580.55 36634.41 -42527.21 M 35803.81 -41770.29 36893.5 -42184.31 M 35803.81 -41770.29 36893.5 -41353.73 M 36530.27 -42029.37 36530.3 -41508.68 M 35803.84 -41010.84 36893.5 -41010.84 M 35803.84 -41010.84 35803.84 -40543.47 35854.63 -40386 35907.97 -40335.2 36012.11 -40284.39 36116.25 -40284.39 36220.37 -40335.2 36271.2 -40386 36322 -40543.47 36322 -41010.84 M 36321.97 -40647.62 36893.5 -40284.39 M 36062.91 -39161.71 35958.77 -39212.52 35854.63 -39316.65 35803.84 -39420.79 35803.81 -39629.07 35854.63 -39733.24 35958.77 -39837.36 36062.89 -39888.15 36220.4 -39941.47 36479.47 -39941.5 36634.41 -39888.15 36738.56 -39837.36 36842.7 -39733.21 36893.5 -39629.07 36893.5 -39420.79 36842.7 -39316.68 36738.53 -39212.52 36634.41 -39161.71 36479.47 -39161.71 M 36479.47 -39420.79 36479.47 -39161.71 M 35803.84 -38402.26 36893.5 -38818.81 M 35803.84 -38402.26 36893.5 -37985.7 M 36530.27 -38661.34 36530.27 -38143.18 M 35803.84 -37642.79 36893.5 -37642.79 M 35803.84 -37642.79 35803.84 -37279.57 35854.63 -37124.63 35958.77 -37020.5 36062.91 -36969.7 36220.4 -36916.36 36479.45 -36916.36 36634.41 -36969.7 36738.56 -37020.5 36842.7 -37124.63 36893.5 -37279.57 36893.5 -37642.79 M 35803.84 -36261.04 35854.63 -36365.18 35958.77 -36469.31 36062.91 -36522.65 36220.4 -36573.45 36479.45 -36573.45 36634.41 -36522.65 36738.56 -36469.31 36842.7 -36365.18 36893.5 -36261.04 36893.5 -36055.29 36842.7 -35951.15 36738.56 -35847.02 36634.41 -35793.68 36479.47 -35742.87 36220.4 -35742.9 36062.91 -35793.68 35958.77 -35847.02 35854.66 -35951.15 35803.81 -36055.29 35803.84 -36261.04 M 35803.84 -35399.97 36893.5 -35399.97 M 35803.84 -35399.97 35803.81 -34932.62 35854.63 -34775.11 35907.97 -34724.34 36012.11 -34671 36116.25 -34671 36220.4 -34724.34 36271.2 -34775.13 36321.97 -34932.62 36322 -35399.97 M 36321.97 -35036.76 36893.5 -34671 M 51805.84 -26289 52895.5 -26289 M 51805.84 -26289 51805.84 -25925.78 51856.63 -25768.29 51960.77 -25666.7 52064.91 -25613.36 52222.4 -25562.55 52481.47 -25562.55 52636.41 -25613.36 52740.56 -25666.7 52844.7 -25768.29 52895.5 -25925.78 52895.5 -26289 M 52014.11 -25219.65 51960.77 -25115.52 51805.84 -24958.04 52895.5 -24958.04 M 51932.84 -15113 53022.5 -15113 M 51932.84 -15113 51932.84 -14749.78 51983.63 -14592.29 52087.77 -14490.7 52191.91 -14437.36 52349.4 -14386.55 52608.45 -14386.55 52763.41 -14437.36 52867.56 -14490.7 52971.7 -14592.29 53022.5 -14749.78 53022.5 -15113 M 52191.91 -13990.31 52141.14 -13990.31 52036.95 -13939.52 51983.63 -13886.2 51932.84 -13782.04 51932.84 -13576.29 51983.63 -13472.13 52036.97 -13418.79 52141.14 -13368.02 52245.25 -13368.02 52349.4 -13418.81 52504.34 -13522.95 53022.5 -14043.65 53022.5 -13314.68 M 40513 -25135.84 40513 -26225.5 M 40513 -25135.84 40980.36 -25135.84 41135.29 -25186.63 41188.63 -25239.97 41239.43 -25344.12 41239.43 -25448.26 41188.63 -25552.39 41135.29 -25603.2 40980.36 -25654 M 40513 -25654 40980.36 -25654 41135.29 -25707.34 41188.63 -25758.13 41239.43 -25862.28 41239.43 -26019.76 41188.63 -26123.89 41135.29 -26174.7 40980.36 -26225.5 40513 -26225.5 M 42207.18 -25499.05 42207.18 -26225.5 M 42207.18 -25654 42103.04 -25552.39 41998.9 -25499.05 41843.95 -25499.05 41739.81 -25552.39 41635.68 -25654 41582.34 -25811.47 41582.34 -25915.62 41635.68 -26070.55 41739.81 -26174.7 41843.95 -26225.5 41998.9 -26225.5 42103.04 -26174.7 42207.18 -26070.55 M 42705.02 -25135.84 42705.02 -26019.76 42758.36 -26174.7 42862.5 -26225.5 42964.09 -26225.5 M 42550.08 -25499.05 42913.29 -25499.05 M 43464.47 -25135.84 43464.47 -26019.76 43515.27 -26174.7 43619.41 -26225.5 43723.56 -26225.5 M 43307 -25499.05 43672.75 -25499.05 M 44066.45 -25811.47 44691.29 -25811.47 44691.29 -25707.34 44637.95 -25603.2 44587.15 -25552.39 44483.02 -25499.05 44325.54 -25499.05 44221.4 -25552.39 44119.79 -25654 44066.45 -25811.47 44066.45 -25915.62 44119.79 -26070.55 44221.4 -26174.7 44325.54 -26225.5 44483.02 -26225.5 44587.15 -26174.7 44691.29 -26070.55 M 45034.2 -25499.05 45034.2 -26225.5 M 45034.2 -25811.47 45085 -25654 45189.13 -25552.39 45293.27 -25499.05 45448.22 -25499.05 M 45844.45 -25499.05 46154.34 -26225.5 M 46466.75 -25499.05 46154.34 -26225.5 46050.2 -26433.78 45948.59 -26537.92 45844.45 -26591.26 45791.11 -26591.26 M 17561.55 -2402.84 17145 -3492.5 M 17561.55 -2402.84 17975.57 -3492.5 M 17299.94 -3129.28 17820.63 -3129.28 M 18318.47 -2402.84 18318.47 -3182.62 18371.81 -3337.55 18475.95 -3441.7 18630.89 -3492.5 18735.04 -3492.5 18889.97 -3441.7 18994.12 -3337.55 19047.45 -3182.62 19047.45 -2402.84 M 19390.36 -2402.84 20116.79 -3492.5 M 20116.79 -2402.84 19390.36 -3492.5 M 33274 -25008.84 33274 -26098.5 M 33274 -25008.84 33741.36 -25008.81 33896.29 -25059.61 33949.63 -25112.95 34000.43 -25217.09 34000.43 -25321.23 33949.66 -25425.37 33896.32 -25476.17 33741.36 -25526.97 33274 -25527 M 33637.24 -25526.97 34000.43 -26098.47 M 34343.34 -25217.09 34447.47 -25163.75 34604.93 -25008.81 34604.95 -26098.47 M 47798.2 -10780.44 47902.34 -10676.3 47953.14 -10521.36 47953.14 -10313.08 47902.34 -10158.14 47798.2 -10054 47694.06 -10054 47589.92 -10104.8 47536.58 -10158.14 47485.8 -10262.28 47381.64 -10574.7 47330.84 -10676.3 47277.5 -10729.64 47173.36 -10780.44 47018.42 -10780.44 46914.28 -10676.3 46863.48 -10521.36 46863.48 -10313.08 46914.28 -10158.14 47018.42 -10054 M 47744.86 -11123.34 47798.2 -11227.48 47953.14 -11384.96 46863.48 -11384.99 M 38049.22 -12979.37 37589.48 -13347.67 37081.48 -13347.67 M 38049.22 -13718.51 37589.48 -13347.67 M 41300.4 -9855.17 40330.11 -10500.33 M 41300.42 -10500.33 40330.14 -9855.17 M 36931.62 -10068.53 35961.34 -9423.37 M 36931.62 -9423.37 36931.62 -10068.53 M 35961.34 -9423.37 35961.34 -10068.53" fill="none" stroke-width="152.4"/><path d="M 43099.27 -787.98 43053.55 -694 42959.57 -602.53 42868.13 -556.84 42728.43 -508.58 42497.29 -508.58 42360.13 -556.84 42268.69 -602.56 42174.69 -694 42128.99 -787.98 42128.99 -970.86 42174.71 -1064.84 42268.69 -1156.28 42360.13 -1202 42497.29 -1247.72 42728.43 -1247.72 42868.13 -1202.02 42959.57 -1156.28 43053.55 -1064.84 43099.3 -970.86 43099.27 -787.98 M 42868.13 -2245.94 42959.57 -2200.19 43053.55 -2108.78 43099.3 -2014.8 43099.27 -1829.4 43053.55 -1737.94 42959.57 -1646.47 42868.13 -1600.78 42728.43 -1552.52 42497.29 -1552.52 42360.13 -1600.78 42268.69 -1646.5 42174.69 -1737.94 42128.99 -1829.38 42128.99 -2014.8 42174.71 -2108.78 42268.69 -2200.22 42360.13 -2245.94 M 42959.57 -3198.44 43053.55 -3104.46 43099.27 -2967.3 43099.27 -2781.88 43053.55 -2642.18 42959.57 -2550.71 42868.13 -2550.74 42776.69 -2596.46 42728.43 -2642.18 42682.71 -2736.16 42591.27 -3013.02 42545.55 -3104.46 42497.29 -3150.18 42405.85 -3198.44 42268.69 -3198.44 42174.71 -3104.46 42129.02 -2967.3 42128.99 -2781.9 42174.69 -2642.18 42268.69 -2550.74 M 40116.17 -584.73 39145.89 -584.73 M 40116.17 -889.53 39145.89 -889.53 M 40116.17 -889.53 39145.89 -1534.69 M 40116.17 -1534.69 39145.89 -1534.69 M 40116.17 -2164.61 39145.89 -2164.61 M 40116.17 -1839.49 40116.17 -2487.19 M 39930.75 -2791.99 39976.47 -2883.43 40116.17 -3023.13 39145.89 -3023.13 M 38044.67 -686.4 37074.39 -686.4 M 38044.67 -991.2 37074.39 -991.2 M 38044.67 -991.2 37074.39 -1636.36 M 38044.67 -1636.36 37074.39 -1636.36 M 38044.67 -2266.28 37074.39 -2266.28 M 38044.67 -1941.16 38044.67 -2588.86 M 37813.53 -2939.38 37859.25 -2939.38 37953.23 -2985.1 37998.98 -3030.82 38044.67 -3124.8 38044.67 -3307.68 37998.95 -3401.66 37953.23 -3447.38 37859.25 -3493.1 37767.81 -3493.1 37676.37 -3447.38 37536.67 -3355.94 37074.37 -2893.66 37074.39 -3538.82 M 35415.77 -1229.94 35509.75 -1138.5 35555.47 -998.8 35555.45 -815.92 35509.78 -676.22 35415.77 -584.78 35324.33 -584.78 35232.89 -630.5 35187.17 -676.22 35138.91 -767.66 35047.47 -1047.06 35001.75 -1138.5 34956.03 -1184.22 34862.03 -1229.94 34724.89 -1229.94 34630.91 -1138.5 34585.19 -998.8 34585.19 -815.92 34630.91 -676.22 34724.89 -584.75 M 35324.33 -2228.16 35415.77 -2182.44 35509.75 -2088.48 35555.47 -1997.02 35555.47 -1811.6 35509.78 -1720.16 35415.77 -1628.72 35324.33 -1580.46 35187.17 -1534.74 34956.03 -1534.74 34816.36 -1580.46 34724.89 -1628.69 34630.91 -1720.16 34585.19 -1811.6 34585.17 -1997.02 34630.91 -2088.46 34724.89 -2182.41 34816.33 -2228.16 M 35555.47 -2532.96 34585.19 -3180.66 M 35555.47 -3180.66 34585.17 -2532.96" fill="none" stroke-width="203.2"/><path d="M 32850.35 -1153.71 32944.33 -1062.27 32990.05 -922.57 32990.05 -739.69 32944.33 -599.99 32850.35 -508.55 32758.91 -508.55 32667.47 -554.27 32621.75 -599.99 32573.49 -691.43 32482.05 -970.83 32436.33 -1062.27 32390.61 -1107.99 32296.63 -1153.71 32159.47 -1153.69 32065.49 -1062.27 32019.77 -922.57 32019.74 -739.69 32065.49 -599.99 32159.47 -508.55 M 32990.05 -1458.51 32019.77 -1458.51 M 32990.05 -1458.51 32990.05 -1783.63 32944.35 -1920.79 32850.35 -2012.23 32758.91 -2060.49 32621.75 -2106.21 32390.61 -2106.21 32250.91 -2060.52 32159.47 -2012.26 32065.49 -1920.79 32019.77 -1783.66 32019.77 -1458.51 M 32990.05 -2411.01 32019.77 -3056.17 M 32990.05 -3056.17 32019.77 -2411.01" fill="none" stroke-width="203"/><path d="M 45564.04 -17017.49 44593.76 -17388.33 M 45564.04 -17756.65 44593.76 -17388.33 M 45564.04 -18061.43 44593.76 -18061.4 M 45564.04 -18366.23 44593.76 -18366.23 M 45564.04 -18366.23 44593.76 -19013.93 M 45564.04 -19013.9 44593.76 -19013.93 M 42998.64 -17185.15 42998.64 -17693.15 42630.34 -17416.29 42630.34 -17555.99 42582.08 -17647.43 42536.36 -17693.15 42399.2 -17738.87 42305.22 -17738.87 42168.06 -17693.15 42074.08 -17601.69 42028.36 -17462.01 42028.36 -17324.85 42074.08 -17185.15 42122.34 -17139.46 42213.78 -17093.71 M 42998.64 -18043.67 42028.36 -18414.51 M 42998.64 -18782.81 42028.36 -18414.51 M 42998.64 -19181.59 42998.64 -19689.59 42630.34 -19410.19 42630.34 -19549.89 42582.08 -19641.33 42536.36 -19689.59 42399.2 -19735.29 42305.22 -19735.31 42168.06 -19689.59 42074.08 -19595.59 42028.36 -19458.45 42028.36 -19318.75 42074.08 -19181.62 42122.34 -19133.36 42213.78 -19087.61 M 40227.5 -17759.17 40318.94 -17713.45 40412.92 -17622.01 40458.64 -17530.57 40458.64 -17345.15 40412.92 -17251.17 40318.94 -17159.73 40227.5 -17114.01 40090.31 -17068.29 39859.2 -17068.29 39719.5 -17114.01 39628.08 -17159.73 39534.08 -17251.17 39488.38 -17345.15 39488.36 -17530.54 39534.08 -17622.01 39628.08 -17713.45 39719.5 -17759.17 39859.2 -17759.17 M 39859.2 -17530.57 39859.2 -17759.17 M 40458.64 -18063.97 39488.36 -18063.99 M 40458.64 -18063.97 39488.36 -18711.67 M 40458.64 -18711.67 39488.36 -18711.67 M 40458.64 -19016.49 39488.36 -19016.47 M 40458.64 -19016.49 40458.64 -19339.05 40412.92 -19478.75 40318.91 -19570.19 40227.5 -19615.91 40090.34 -19664.17 39859.2 -19664.17 39719.5 -19615.91 39628.06 -19570.19 39534.08 -19478.75 39488.36 -19339.02 39488.36 -19016.47 M 35340.56 -17639.84 35434.54 -17548.4 35480.26 -17408.7 35480.26 -17223.28 35434.54 -17086.12 35340.56 -16992.14 35249.12 -16992.16 35157.68 -17040.42 35109.42 -17086.12 35063.7 -17177.56 34972.26 -17454.42 34926.54 -17548.4 34878.28 -17594.12 34786.84 -17639.84 34649.68 -17639.84 34555.7 -17548.4 34509.98 -17408.7 34509.98 -17223.28 34555.7 -17086.12 34649.68 -16992.14 M 35480.26 -17944.64 34509.98 -17944.64 M 35480.26 -17944.64 35480.26 -18267.22 35434.54 -18406.89 35340.56 -18498.36 35249.12 -18544.08 35109.42 -18592.34 34878.28 -18592.34 34741.12 -18544.08 34649.66 -18498.36 34555.73 -18406.92 34509.98 -18267.22 34509.98 -17944.64 M 35480.26 -19265.44 34509.98 -18897.14 M 35480.26 -19265.44 34509.98 -19633.74 M 34832.59 -19034.3 34832.56 -19496.58 M 32683.72 -17609.31 32775.16 -17563.59 32869.14 -17472.15 32914.86 -17378.17 32914.86 -17195.29 32869.14 -17101.31 32775.16 -17009.87 32683.72 -16964.15 32544.02 -16915.89 32312.88 -16915.86 32175.72 -16964.15 32084.28 -17009.87 31990.3 -17101.31 31944.58 -17195.31 31944.58 -17378.17 31990.3 -17472.15 32084.28 -17563.61 32175.72 -17609.31 M 32775.16 -18561.78 32869.14 -18467.83 32914.86 -18330.67 32914.86 -18145.25 32869.14 -18008.09 32775.16 -17914.11 32683.72 -17914.11 32592.28 -17959.83 32544.02 -18008.09 32498.3 -18099.55 32406.84 -18376.39 32361.14 -18467.83 32312.88 -18516.09 32221.44 -18561.78 32084.28 -18561.81 31990.3 -18467.83 31944.58 -18330.67 31944.58 -18145.25 31990.3 -18008.09 32084.28 -17914.11 M 30332.19 -17561.66 30426.17 -17470.22 30471.89 -17330.52 30471.89 -17147.64 30426.17 -17007.94 30332.19 -16916.5 30240.75 -16916.5 30149.31 -16962.22 30103.59 -17007.94 30055.33 -17099.38 29963.89 -17378.78 29918.17 -17470.22 29872.45 -17515.94 29778.47 -17561.66 29641.31 -17561.63 29547.33 -17470.22 29501.61 -17330.52 29501.61 -17147.66 29547.33 -17007.94 29641.31 -16916.5 M 30471.89 -18237.3 29501.61 -17866.46 M 30471.89 -18237.3 29501.61 -18605.57 M 29824.19 -18006.16 29824.19 -18468.44 M 30471.89 -19187.26 30426.17 -19050.1 30286.47 -18956.12 30055.33 -18910.4 29918.17 -18910.4 29687.01 -18956.12 29547.33 -19050.1 29501.61 -19187.26 29501.59 -19281.24 29547.33 -19418.4 29687.03 -19512.38 29918.17 -19558.07 30055.33 -19558.1 30286.47 -19512.38 30426.17 -19418.4 30471.89 -19281.24 30471.89 -19187.26 M 37875.94 -17688.76 37969.92 -17597.32 38015.64 -17457.62 38015.64 -17274.74 37969.92 -17135.04 37875.94 -17043.6 37784.5 -17043.6 37693.09 -17089.32 37647.34 -17135.04 37599.08 -17226.48 37507.64 -17505.88 37461.92 -17597.32 37416.2 -17643.04 37322.22 -17688.76 37185.06 -17688.76 37091.08 -17597.32 37045.36 -17457.62 37045.36 -17274.74 37091.08 -17135.04 37185.06 -17043.6 M 37784.5 -18686.98 37875.94 -18641.26 37969.92 -18547.28 38015.64 -18455.84 38015.64 -18270.42 37969.92 -18178.98 37875.94 -18087.54 37784.5 -18039.28 37647.34 -17993.56 37416.2 -17993.56 37276.5 -18039.28 37185.06 -18087.54 37091.08 -18178.98 37045.36 -18270.42 37045.36 -18455.84 37091.08 -18547.28 37185.06 -18641.26 37276.5 -18686.98 M 38015.64 -18991.78 37045.36 -18991.78 37045.36 -19545.5" fill="none" stroke-width="203.2"/><path d="M 50002.43 -31513.78 49898.29 -31409.63 49743.36 -31358.84 49535.08 -31358.84 49380.13 -31409.63 49276 -31513.78 49276 -31617.92 49326.79 -31722.05 49380.13 -31775.39 49484.27 -31826.2 49796.7 -31930.34 49898.29 -31981.13 49951.63 -32034.47 50002.43 -32138.62 50002.43 -32293.55 49898.29 -32397.7 49743.36 -32448.5 49535.08 -32448.5 49380.13 -32397.7 49276 -32293.55 M 50345.34 -31358.84 50606.95 -32448.5 M 50866.04 -31358.84 50606.95 -32448.5 M 50866.04 -31358.84 51125.11 -32448.5 M 51384.2 -31358.84 51125.11 -32448.5 M 51727.09 -31567.12 51831.24 -31513.78 51988.72 -31358.84 51988.72 -32448.5 M 14234.15 -34417 13454.37 -34417 13299.46 -34467.79 13195.29 -34571.96 13144.5 -34729.42 13144.5 -34833.55 13195.29 -34988.5 13299.44 -35092.63 13454.37 -35143.44 14234.15 -35143.44 M 14025.87 -35486.34 14079.21 -35590.47 14234.15 -35747.95 13144.5 -35747.95 M 19050 -46609 19050 -47386.21 M 19050 -46609 19309.08 -46608.97 19418.29 -46647.12 19494.5 -46720.76 19530.06 -46794.42 19568.15 -46906.18 19568.15 -47091.6 19530.06 -47200.81 19494.5 -47274.47 19418.29 -47348.13 19309.08 -47386.23 19050 -47386.21 M 19812 -46758.86 19885.65 -46720.76 19994.85 -46609 19994.88 -47386.23 M 21376.63 -46868.05 21376.63 -47386.21 M 21376.63 -47015.39 21488.4 -46906.18 21562.06 -46868.07 21673.84 -46868.07 21747.47 -46906.18 21783.04 -47015.39 21783.04 -47386.23 M 21783.04 -47015.39 21894.79 -46906.18 21968.45 -46868.07 22080.22 -46868.07 22153.88 -46906.2 22189.43 -47015.39 22189.43 -47386.23 M 22433.3 -46609 22471.38 -46647.1 22506.93 -46609 22471.38 -46573.44 22433.3 -46609 M 22471.38 -46868.07 22471.38 -47386.23 M 22750.77 -46868.07 22750.77 -47386.23 M 22750.77 -47015.39 22862.54 -46906.18 22936.2 -46868.07 23047.95 -46868.07 23121.61 -46906.18 23157.18 -47015.39 23157.18 -47386.23 M 23400.99 -46609 23439.11 -46647.12 23477.22 -46609 23439.11 -46573.44 23400.99 -46609 M 23439.11 -46868.05 23439.11 -47386.21 M 19618.95 -48437.79 19913.62 -49215.04 M 20210.77 -48437.79 19913.62 -49215.04 M 20490.15 -48623.21 20490.18 -48587.68 20528.3 -48514 20563.84 -48475.89 20637.5 -48437.79 20787.36 -48437.82 20861.02 -48475.89 20896.58 -48514 20934.68 -48587.65 20934.68 -48661.31 20896.58 -48734.97 20822.91 -48844.2 20454.61 -49215.04 20970.24 -49215.04 M 21252.18 -49029.62 21214.08 -49067.69 21252.18 -49103.28 21287.74 -49067.71 21252.18 -49029.62 M 21607.77 -48437.79 22014.18 -48437.79 21790.65 -48734.97 21902.41 -48734.97 21976.08 -48770.54 22014.18 -48808.63 22049.74 -48920.39 22049.74 -48994.05 22014.18 -49103.28 21937.97 -49176.91 21828.75 -49215.06 21717 -49215.04 21607.77 -49176.94 21569.65 -49141.37 21531.58 -49067.71 M 22331.68 -49029.62 22293.58 -49067.69 22331.68 -49103.28 22367.24 -49067.71 22331.68 -49029.62 M 22832.06 -48437.79 22722.84 -48475.89 22649.18 -48587.68 22611.08 -48770.54 22611.05 -48882.29 22649.18 -49067.71 22722.84 -49176.94 22832.06 -49215.04 22908.25 -49215.06 23017.5 -49176.94 23091.13 -49067.71 23129.24 -48882.29 23129.24 -48770.54 23091.13 -48587.65 23017.47 -48475.89 22908.25 -48437.79 22832.06 -48437.79 M 19050 -50266.6 19235.42 -51043.84 M 19418.29 -50266.6 19235.42 -51043.84 M 19418.29 -50266.6 19603.72 -51043.84 M 19789.13 -50266.6 19603.72 -51043.84 M 20032.97 -50266.6 20032.97 -51043.84 M 20032.97 -50266.6 20513.04 -50266.6 M 20032.97 -50637.44 20327.61 -50637.46 M 20032.97 -51043.84 20513.04 -51043.84 M 20756.88 -50266.6 20756.88 -51043.84 M 20756.88 -50266.6 21051.52 -51043.84 M 21348.7 -50266.6 21051.52 -51043.84 M 21348.7 -50266.6 21348.7 -51043.84 M 21813.52 -50266.6 21739.88 -50304.7 21666.2 -50378.38 21628.09 -50452.02 21592.54 -50563.78 21592.54 -50749.2 21628.09 -50858.42 21666.2 -50932.1 21739.86 -51005.76 21813.52 -51043.84 21960.84 -51043.84 22034.5 -51005.73 22108.15 -50932.07 22146.25 -50858.42 22181.81 -50749.2 22181.81 -50563.78 22146.25 -50452.02 22108.15 -50378.36 22034.5 -50304.7 21960.84 -50266.6 21813.52 -50266.6 M 22943.81 -50378.36 22870.15 -50304.7 22758.4 -50266.6 22611.08 -50266.6 22501.86 -50304.7 22425.65 -50378.36 22425.65 -50452.02 22463.75 -50525.68 22501.86 -50563.78 22575.52 -50599.34 22796.5 -50673 22870.15 -50711.1 22908.25 -50749.2 22943.79 -50822.86 22943.81 -50932.07 22870.15 -51005.73 22758.4 -51043.84 22611.08 -51043.84 22501.86 -51005.73 22425.65 -50932.07 M 23225.75 -50858.42 23187.65 -50896.52 23225.75 -50932.07 23261.31 -50896.52 23225.75 -50858.42 M 24058.88 -50452.02 24023.31 -50378.36 23949.65 -50304.7 23876 -50266.6 23726.13 -50266.6 23652.47 -50304.7 23578.84 -50378.36 23543.25 -50452.02 23505.15 -50563.78 23505.15 -50749.2 23543.25 -50858.42 23578.84 -50932.07 23652.47 -51005.73 23726.13 -51043.84 23876 -51043.84 23949.65 -51005.73 24023.31 -50932.07 24058.88 -50858.39 M 24858.97 -50452.02 24820.88 -50378.36 24747.22 -50304.7 24673.56 -50266.6 24526.24 -50266.6 24452.6 -50304.7 24376.38 -50378.36 24340.81 -50452.02 24302.72 -50563.78 24302.72 -50749.2 24340.81 -50858.42 24376.38 -50932.07 24452.58 -51005.76 24526.24 -51043.84 24673.56 -51043.84 24747.22 -51005.73 24820.88 -50932.07 24858.97 -50858.42 M 4064 -26299.13 4064 -27028.13 M 4064 -26299.13 4376.42 -26299.15 4480.55 -26334.71 4513.57 -26370.28 4549.13 -26438.86 4549.13 -26507.44 4513.57 -26576.02 4480.55 -26611.57 4376.42 -26647.13 4064 -26647.13 M 4305.29 -26647.13 4549.13 -27028.13 M 5262.87 -26403.29 5194.29 -26334.71 5090.15 -26299.13 4950.45 -26299.13 4846.31 -26334.71 4777.73 -26403.29 4777.73 -26474.42 4813.29 -26543 4846.31 -26576.02 4914.89 -26611.57 5123.18 -26680.15 5194.29 -26715.71 5227.31 -26751.25 5262.85 -26819.86 5262.87 -26924 5194.29 -26992.57 5090.15 -27028.13 4950.45 -27028.13 4846.29 -26992.57 4777.73 -26924 M 5732.78 -26299.13 5732.78 -27028.13 M 5491.47 -26299.15 5976.62 -26299.13 M 4340.86 -28839.18 4064 -29568.13 M 4340.86 -28839.18 4617.71 -29568.13 M 4168.13 -29324.29 4513.57 -29324.29 M 5054.6 -28839.15 4950.45 -28874.71 4881.87 -28978.86 4846.29 -29151.57 4846.29 -29255.71 4881.87 -29428.44 4950.45 -29532.57 5054.6 -29568.13 5123.18 -29568.13 5227.31 -29532.6 5295.89 -29428.44 5331.45 -29255.71 5331.45 -29151.57 5295.89 -28978.86 5227.29 -28874.71 5123.18 -28839.15 5054.6 -28839.15 M 4064 -31379.15 4064 -32108.13 M 4064 -31379.15 4305.29 -31379.15 4409.44 -31414.71 4480.55 -31483.27 4513.57 -31554.42 4549.13 -31656.02 4549.13 -31831.28 4513.57 -31935.42 4480.55 -32004 4409.44 -32072.57 4305.29 -32108.13 4064 -32108.13 M 4986.02 -31379.15 4881.87 -31414.71 4813.29 -31518.86 4777.73 -31691.57 4777.73 -31795.71 4813.29 -31968.44 4881.87 -32072.57 4986.02 -32108.13 5054.6 -32108.13 5158.73 -32072.57 5227.31 -31968.44 5262.87 -31795.71 5262.87 -31691.6 5227.31 -31518.86 5158.73 -31414.71 5054.6 -31379.15 4986.02 -31379.15 M 4064 -33919.13 4064 -34648.11 M 4064 -33919.13 4305.29 -33919.15 4409.44 -33954.71 4480.55 -34023.29 4513.57 -34094.42 4549.13 -34196.02 4549.13 -34371.28 4513.57 -34475.42 4480.55 -34544 4409.44 -34612.57 4305.29 -34648.13 4064 -34648.11 M 5194.29 -33919.15 4846.29 -33919.15 4813.29 -34231.57 4846.31 -34196.02 4950.45 -34163.02 5054.6 -34163 5158.73 -34196.02 5227.31 -34267.13 5262.87 -34371.25 5262.87 -34439.88 5227.31 -34544 5158.73 -34612.57 5054.6 -34648.13 4950.45 -34648.11 4846.29 -34612.57 4813.29 -34577.02 4777.73 -34508.44 M 4064 -36459.15 4064 -37188.13 M 4064 -36459.15 4305.29 -36459.18 4409.46 -36494.71 4480.55 -36563.29 4513.57 -36634.42 4549.13 -36736.02 4549.13 -36911.28 4513.57 -37015.42 4480.55 -37083.97 4409.46 -37152.57 4305.29 -37188.16 4064 -37188.13 M 5194.29 -36563.29 5158.73 -36494.71 5054.6 -36459.15 4986.02 -36459.15 4881.87 -36494.71 4813.29 -36598.86 4777.73 -36771.57 4777.73 -36944.29 4813.32 -37084 4881.87 -37152.57 4986.02 -37188.13 5019.04 -37188.13 5123.18 -37152.57 5194.29 -37084 5227.31 -36979.86 5227.31 -36944.29 5194.29 -36840.15 5123.18 -36771.57 5019.04 -36736.02 4986.02 -36736.04 4881.87 -36771.57 4813.29 -36840.15 4777.73 -36944.29 M 4064 -38999.15 4064 -39728.13 M 4064 -38999.15 4305.29 -38999.15 4409.44 -39034.71 4480.55 -39103.27 4513.57 -39174.42 4549.13 -39276.02 4549.13 -39451.28 4513.57 -39555.42 4480.55 -39624 4409.44 -39692.57 4305.29 -39728.13 4064 -39728.13 M 5262.87 -38999.15 4914.89 -39728.13 M 4777.73 -38999.15 5262.87 -38999.15 M 4064 -41539.13 4064 -42268.11 M 4064 -41539.13 4305.29 -41539.15 4409.44 -41574.71 4480.55 -41643.29 4513.57 -41714.42 4549.13 -41816.02 4549.13 -41991.28 4513.57 -42095.42 4480.55 -42164 4409.44 -42232.57 4305.29 -42268.13 4064 -42268.11 M 4950.45 -41539.13 4846.29 -41574.71 4813.29 -41643.29 4813.29 -41714.42 4846.31 -41783 4914.89 -41816.02 5054.6 -41851.57 5158.73 -41887.13 5227.29 -41955.71 5262.87 -42024.29 5262.87 -42128.44 5227.31 -42197.02 5194.29 -42232.57 5090.18 -42268.13 4950.45 -42268.11 4846.29 -42232.57 4813.29 -42197.02 4777.73 -42128.44 4777.73 -42024.29 4813.32 -41955.71 4881.87 -41887.13 4986.02 -41851.57 5123.18 -41816.02 5194.29 -41783 5227.31 -41714.42 5227.31 -41643.29 5194.29 -41574.71 5090.18 -41539.15 4950.45 -41539.13 M 4132.57 -44079.15 4513.57 -44079.15 4305.29 -44356.02 4409.44 -44356.02 4480.55 -44391.57 4513.57 -44427.13 4549.13 -44531.28 4549.13 -44599.86 4513.57 -44704 4445 -44772.6 4340.86 -44808.16 4236.71 -44808.13 4132.57 -44772.57 4099.55 -44737.02 4064 -44668.44 M 4777.73 -44079.15 5054.6 -44808.13 M 5331.48 -44079.15 5054.6 -44808.13 M 5628.63 -44079.15 6009.61 -44079.15 5803.89 -44356.02 5905.5 -44356.02 5976.64 -44391.57 6009.63 -44427.13 6045.2 -44531.28 6045.2 -44599.86 6009.61 -44704 5941.05 -44772.57 5836.92 -44808.13 5732.78 -44808.13 5628.63 -44772.57 5595.62 -44737.02 5560.08 -44668.44 M 22006.56 -43987.71 21658.55 -43987.71 21625.58 -44300.13 21658.58 -44264.57 21762.72 -44231.55 21866.86 -44231.55 21971 -44264.57 22039.58 -44335.67 22075.11 -44439.84 22075.13 -44508.42 22039.58 -44612.55 21971 -44681.13 21866.88 -44716.7 21762.72 -44716.67 21658.55 -44681.13 21625.56 -44645.57 21590 -44577 M 22303.74 -43987.71 22580.59 -44716.7 M 22857.45 -43987.71 22580.59 -44716.7 M 21348.7 -41622.97 21313.13 -41551.86 21244.56 -41483.28 21173.43 -41447.71 21036.27 -41447.71 20967.7 -41483.28 20896.58 -41551.86 20863.56 -41622.95 20828 -41724.57 20828 -41899.84 20863.56 -42003.97 20896.58 -42072.55 20967.7 -42141.11 21036.27 -42176.7 21173.43 -42176.7 21244.56 -42141.13 21313.13 -42072.55 21348.7 -42003.97 21348.7 -41899.84 M 21173.43 -41899.84 21348.7 -41899.84 M 21577.29 -41447.71 21577.29 -42176.7 M 21577.29 -41447.71 22059.9 -42176.7 M 22059.9 -41447.71 22059.9 -42176.7 M 22288.5 -41447.71 22288.5 -42176.7 M 22288.5 -41447.71 22532.34 -41447.71 22636.47 -41483.28 22705.06 -41551.86 22740.61 -41622.95 22773.63 -41724.57 22773.63 -41899.84 22740.61 -42003.97 22705.06 -42072.55 22636.47 -42141.11 22532.34 -42176.7 22288.5 -42176.7 M 21590 -38907.71 21590 -39636.7 M 21590 -38907.71 21831.29 -38907.71 21935.43 -38943.28 22006.56 -39011.86 22039.58 -39082.97 22075.13 -39184.57 22075.13 -39359.84 22039.58 -39463.97 22006.56 -39532.55 21935.43 -39601.13 21831.29 -39636.7 21590 -39636.7 M 22649.18 -38907.71 22303.71 -39392.86 22821.9 -39392.86 M 22649.18 -38907.71 22649.18 -39636.7 M 21590 -36367.71 21590 -37096.7 M 21590 -36367.71 21831.29 -36367.71 21935.43 -36403.28 22006.56 -36471.86 22039.58 -36542.97 22075.11 -36644.57 22075.11 -36819.84 22039.58 -36924 22006.56 -36992.55 21935.43 -37061.13 21831.29 -37096.7 21590 -37096.7 M 22372.31 -36367.71 22753.31 -36367.71 22545.04 -36644.57 22649.18 -36644.57 22720.29 -36680.13 22753.31 -36715.7 22788.88 -36819.84 22788.88 -36888.42 22753.31 -36992.55 22684.71 -37061.13 22580.59 -37096.7 22476.45 -37096.7 22372.31 -37061.13 22339.29 -37025.57 22303.74 -36957 M 21590 -33827.71 21590 -34556.7 M 21590 -33827.71 21831.29 -33827.71 21935.43 -33863.28 22006.56 -33931.86 22039.58 -34002.95 22075.13 -34104.57 22075.13 -34279.84 22039.58 -34383.97 22006.56 -34452.55 21935.43 -34521.13 21831.29 -34556.7 21590 -34556.7 M 22339.29 -34002.97 22339.29 -33967.42 22372.31 -33898.84 22407.88 -33863.28 22476.45 -33827.71 22616.15 -33827.71 22684.74 -33863.28 22720.29 -33898.84 22753.31 -33967.42 22753.31 -34036 22720.29 -34104.57 22649.18 -34208.69 22303.74 -34556.7 22788.88 -34556.7 M 21844 -31287.71 21844 -32016.7 M 21844 -31287.71 22085.29 -31287.71 22189.41 -31323.28 22260.56 -31391.86 22293.58 -31462.97 22329.13 -31564.57 22329.13 -31739.84 22293.58 -31843.97 22260.56 -31912.55 22189.43 -31981.13 22085.29 -32016.7 21844 -32016.7 M 22557.74 -31427.42 22626.31 -31391.86 22730.45 -31287.71 22730.45 -32016.7 M 21590 -28747.71 21590 -29476.7 M 21590 -28747.71 21902.44 -28747.71 22006.56 -28783.28 22039.58 -28818.84 22075.13 -28887.42 22075.13 -28956 22039.58 -29024.55 22006.56 -29060.13 21902.41 -29095.7 21590 -29095.7 M 21831.29 -29095.7 22075.13 -29476.7 M 22303.74 -28747.71 22788.9 -29476.7 M 22788.9 -28747.71 22303.74 -29476.7 M 21831.29 -26207.71 21831.29 -26936.7 M 21590 -26207.71 22075.13 -26207.71 M 22303.74 -26207.71 22788.88 -26936.7 M 22788.88 -26207.71 22303.74 -26936.7 M 10274.29 -21590 9906 -22560.28 M 10274.29 -21590 10645.13 -22560.28 M 10045.7 -22235.15 10505.44 -22235.15 M 10949.94 -21590 10949.94 -22560.28 M 10949.94 -21590 11595.1 -22560.28 M 11595.1 -21590 11595.1 -22560.28 M 12225.02 -21590 12225.02 -22560.28 M 11899.89 -21590 12547.6 -21590 M 12852.39 -21590 12852.39 -22560.28 M 12852.39 -21590 13451.84 -21590 M 12852.39 -22052.28 13220.7 -22052.28 M 12852.39 -22560.28 13451.84 -22560.28 M 13756.63 -21590 13756.63 -22560.28 M 13756.63 -21590 14404.34 -22560.28 M 14404.34 -21590 14404.34 -22560.28 M 14709.13 -21590 14709.13 -22560.28 M 14709.13 -21590 15354.29 -22560.28 M 15354.29 -21590 15354.29 -22560.28 M 16029.94 -21590 15659.1 -22560.28 M 16029.94 -21590 16398.23 -22560.28 M 15798.79 -22235.15 16261.07 -22235.15 M 10668 -50546 10668 -51066.7 10703.55 -51170.84 10772.11 -51239.42 10876.28 -51274.95 10944.86 -51274.97 11049 -51239.42 11117.57 -51170.84 11153.13 -51066.7 11153.13 -50546 M 11866.87 -50650.13 11798.29 -50581.53 11694.13 -50546 11554.45 -50546 11450.31 -50581.55 11381.73 -50650.13 11381.73 -50721.26 11417.29 -50789.84 11450.34 -50822.86 11518.89 -50858.42 11727.18 -50927 11798.29 -50962.55 11831.31 -50998.12 11866.87 -51066.7 11866.87 -51170.84 11798.29 -51239.44 11694.13 -51274.97 11554.45 -51274.97 11450.31 -51239.42 11381.73 -51170.84 M 12095.47 -50546 12095.47 -51274.97 M 12095.47 -50546 12407.89 -50546 12509.5 -50581.53 12545.05 -50617.09 12580.59 -50685.7 12580.62 -50754.28 12545.05 -50822.86 12509.5 -50858.42 12407.89 -50893.95 M 12095.47 -50893.97 12407.89 -50893.95 12509.5 -50927 12545.05 -50962.55 12580.62 -51031.13 12580.62 -51135.25 12545.05 -51203.88 12509.5 -51239.44 12407.89 -51274.97 12095.47 -51274.97 M 13342.64 -50546 13342.64 -51274.97 M 13342.64 -50546 13619.47 -51274.97 M 13896.36 -50546 13619.47 -51274.97 M 13896.36 -50546 13896.34 -51274.95 M 14124.91 -50546 14124.94 -51274.95 M 14871.67 -50721.26 14838.68 -50650.13 14770.1 -50581.55 14698.97 -50546 14561.81 -50546 14490.7 -50581.55 14422.12 -50650.16 14389.07 -50721.26 14353.54 -50822.86 14353.54 -50998.12 14389.1 -51102.26 14422.12 -51170.84 14490.7 -51239.42 14561.81 -51274.97 14698.97 -51274.97 14770.1 -51239.42 14838.68 -51170.84 14871.7 -51102.26 M 15100.27 -50546 15100.27 -51274.97 M 15100.27 -50546 15412.71 -50546 15516.86 -50581.55 15552.42 -50617.12 15585.44 -50685.7 15585.44 -50754.28 15552.39 -50822.86 15516.86 -50858.39 15412.71 -50893.97 15100.29 -50893.97 M 15344.13 -50893.97 15585.44 -51274.97 M 16022.29 -50546 15953.73 -50581.55 15885.15 -50650.13 15849.6 -50721.26 15814.06 -50822.86 15814.06 -50998.12 15849.6 -51102.28 15885.15 -51170.84 15953.73 -51239.42 16022.29 -51274.97 16161.99 -51274.97 16230.62 -51239.42 16299.18 -51170.84 16334.73 -51102.26 16370.29 -50998.12 16370.29 -50822.86 16334.73 -50721.26 16299.18 -50650.13 16230.62 -50581.55 16161.99 -50546 16022.29 -50546 M 2540 -51308 3268.97 -51308 M 2540 -51308 2540 -50995.57 2575.55 -50891.44 2611.12 -50858.39 2679.7 -50822.86 2748.28 -50822.86 2816.86 -50858.42 2852.42 -50891.44 2887.97 -50995.57 2887.97 -51308 M 2887.97 -51066.7 3269 -50822.86 M 2540.02 -50594.26 3269 -50594.26 M 2540.02 -50594.26 2540 -50144.68 M 2887.97 -50594.26 2887.95 -50317.39 M 3269 -50594.26 3268.97 -50144.68 M 2644.13 -49430.94 2575.55 -49499.52 2540 -49603.65 2540.02 -49743.36 2575.55 -49847.52 2644.13 -49916.07 2715.26 -49916.07 2783.84 -49880.52 2816.86 -49847.5 2852.42 -49776.37 2921 -49568.1 2956.55 -49499.52 2992.14 -49466.5 3060.7 -49430.94 3164.84 -49430.94 3233.42 -49499.52 3268.97 -49603.65 3268.97 -49743.33 3233.44 -49847.5 3164.84 -49916.07 M 2540 -49202.34 3268.97 -49202.34 M 2540 -49202.34 2540 -48752.76 M 2887.95 -49202.34 2887.97 -48925.47 M 3268.97 -49202.34 3268.97 -48752.76 M 2540 -48280.31 3268.97 -48280.31 M 2540 -48524.15 2540.02 -48039.02 M 4422.13 -50822.86 4353.55 -50891.44 4318 -50995.57 4318 -51135.25 4353.55 -51239.44 4422.13 -51308 4493.26 -51308 4561.84 -51272.44 4594.86 -51239.42 4630.42 -51168.29 4699 -50962.55 4734.55 -50891.44 4770.12 -50858.39 4838.7 -50822.86 4942.84 -50822.86 5011.42 -50891.44 5046.97 -50995.57 5046.97 -51135.25 5011.44 -51239.42 4942.84 -51308 M 4318 -50594.26 5046.97 -50421.54 M 4318 -50248.81 5046.97 -50421.54 M 4318 -50248.81 5046.97 -50076.1 M 4318 -49900.84 5046.97 -50076.1 M 4318 -49672.23 5046.97 -49672.23 M 4318.02 -49202.34 5046.97 -49202.36 M 4318 -49443.63 4318 -48958.5 M 4493.26 -48211.71 4422.13 -48247.29 4353.55 -48315.9 4318 -48384.45 4318 -48524.15 4353.55 -48592.73 4422.13 -48661.31 4493.26 -48696.87 4594.86 -48729.89 4770.12 -48729.89 4874.26 -48696.87 4942.84 -48661.31 5011.42 -48592.73 5046.97 -48524.15 5046.97 -48384.45 5011.44 -48315.87 4942.84 -48247.29 4874.26 -48211.73 M 4318 -47983.11 5046.97 -47983.11 M 4318 -47498 5046.97 -47498 M 4665.97 -47983.13 4665.97 -47498" fill="none" stroke-width="152.4"/><path d="M 39497 -9652 39497 -10668 40259 -10160"/><path d="M 36957 -12319 37465 -13081 37973 -12319"/><path d="M 38862 -8839.19 39166.79 -9525 39598.6 -8940.8"/><path d="M 38747.7 -11480.8 38061.9 -11963.4 38798.5 -12293.6"/><path d="M 28321 -27559 44323 -27559 44323 -53467 44323 -53213 M 28067.02 -27559 28067.02 -53467 32639 -53467 33909 -52197 33909 -52959 33655 -53213 39243.02 -53213 38989 -52958.97 38989 -52197 40259 -53467 44323 -53467 44323 -27559 28067.02 -27559 M 32639 -53467 33909 -52197 33909 -52705 38989 -52705 M 38989 -52197 40259 -53467 M 33909 -52197 33909 -49403 34670.97 -49403 34670.97 -49911 35179 -49911.02 35179 -49402.97 37719 -49403 37719 -49911 38227 -49911 38227 -49403 38989 -49402.97 38989 -52958.97 39243.02 -53213 33655 -53213 33909 -52959 33909 -49403 M 34671 -51943 34671 -51181 35179 -51181 35179 -51943 34671 -51943 M 37719 -51181 37719 -51943 38227 -51943 38227 -51181 37719 -51181 M 51310.99 -23886.26 48511 -23886.26 M 51310.99 -22927 48511 -22927 48511 -28126.99 M 51310.99 -28126.99 48511 -28126.99 M 51310.99 -22927 51310.99 -28126.99 M 48511 -15737.73 51310.99 -15737.73 M 48511 -16696.99 51310.99 -16696.99 51310.99 -11497 M 48511 -11497 51310.99 -11497 M 48511 -16696.99 48511 -11497" fill="none" stroke-width="254"/><path d="M 46101 -21844 46101 -24358.6 41021 -24358.6 41021 -21844 46101 -21844 M 6350 -4191 6350 -1651 16510 -1651 16510 -4191 14605 -4191" fill="none" stroke-width="203.2"/><path d="M 6350 -4191 14605 -4191" fill="none" stroke-width="203"/><path d="M 37412.98 -21963.98 37412.98 -24264.01 30913.01 -24264.01 M 30912.99 -24233.98 30912.99 -21994.01 M 30913.01 -21963.98 37412.98 -21963.98 M 46355.48 -15240.68 45085.48 -16510.68 29845 -16510 28575 -15240 28575 -5080 29845 -3810 45085.48 -3810.68 46355.48 -5080.68 46355.48 -15240.68 M 37465 -12700 37465 -10160 40005 -10160 M 45606.03 -33120.02 45606 -53619.98 M 45606.03 -33120.02 53105.98 -33120.02 M 45606.03 -53619.98 53105.96 -53619.98 M 53105.98 -33120.02 53105.96 -53619.98 M 3302 -19050 23622 -19050 M 9652 -53340 17272 -53340 17272 -48259.97 9652 -48259.97 9652 -53340 M 5842 -46990 2032 -46990 2032 -52069.97 5842 -52069.97 5842 -46990 M 6604 -26162 20320 -26162 20320 -42672 6604 -42672 6604 -26162 6604 -19050 M 20320 -26162 20320 -19050 M 762 -45765.71 2032 -47035.71 2031.97 -53385.71 M 26161.97 -21635.71 26162 -53385.71 2031.97 -53385.71 M 762.02 -21635.71 762 -45765.71 M 39116.03 -9144.03 A 1058.3408003 1058.3408003 0 0 1 39116.03 -11176.03 M 38481.03 -11811.08 A 1058.3236052 1058.3236052 0 0 1 36449 -11811.08 M 762.03 -21590.03 A 2539.99 2539.99 0 0 0 3302.03 -19050.03 M 23621.97 -19050.03 A 2539.99 2539.99 0 0 0 26161.97 -21590.03 M 37718.97 -10159.92 A 254 254 0 0 1 37210.97 -10159.92 254 254 0 0 1 37718.97 -10159.92" fill="none" stroke-width="254"/></g><g id="i2lIwPJ1NwT-6eWyGlmk_top_soldermask"><path d="M 48006 -38369.95 48006 -40370.07 M 50706.02 -38369.95 50706.02 -40370.07 M 48006 -42370.45 48006 -44370.57 M 50706.02 -42370.45 50706.02 -44370.57 M 48006 -46370.95 48006 -48371.07 M 50706.02 -46370.95 50706.02 -48371.07" fill="none" stroke-width="1601.6"/><path d="M 2269.99 -26670 1794 -26670 M 25129.99 -44450 24654 -44450 M 25129.99 -41910 24654 -41910 M 25130.02 -39370 24653.97 -39370 M 25129.99 -36830 24654 -36830 M 25129.99 -34290 24654 -34290 M 25130.02 -31750 24653.97 -31750 M 25129.99 -29210 24654 -29210 M 25129.99 -26670 24654 -26670 M 2269.99 -44450 1794 -44450 M 2269.99 -41910 1794 -41910 M 2270.02 -39370 1793.97 -39370 M 2269.99 -36830 1794 -36830 M 2269.99 -34290 1794 -34290 M 2270.02 -31750 1793.97 -31750 M 2269.99 -29210 1794 -29210" fill="none" stroke-width="1727.2"/><path d="M 28087.01 -52989.78 28071.77 -52987.24 28056.53 -52979.62 28046.37 -52969.46 28038.75 -52954.22 28036.21 -52938.98 28036.52 -52938.68 28036.52 -50439.31 28036.21 -50438.98 28038.75 -50423.74 28046.37 -50408.5 28056.53 -50398.34 28071.77 -50390.72 28087.01 -50388.18 28087.31 -50388.52 30586.68 -50388.52 30587.01 -50388.18 30602.25 -50390.72 30617.49 -50398.34 30627.65 -50408.5 30635.27 -50423.74 30637.81 -50438.98 30637.47 -50439.31 30637.47 -52938.68 30637.81 -52938.98 30635.27 -52954.22 30627.65 -52969.46 30617.49 -52979.62 30602.25 -52987.24 30587.01 -52989.78 30586.68 -52989.47 28087.31 -52989.47"/><path d="M 41803.01 -52989.78 41787.77 -52987.24 41772.53 -52979.62 41762.37 -52969.46 41754.75 -52954.22 41752.21 -52938.98 41752.52 -52938.68 41752.52 -50439.31 41752.21 -50438.98 41754.75 -50423.74 41762.37 -50408.5 41772.53 -50398.34 41787.77 -50390.72 41803.01 -50388.18 41803.31 -50388.52 44302.68 -50388.52 44303.01 -50388.18 44318.25 -50390.72 44333.49 -50398.34 44343.65 -50408.5 44351.27 -50423.74 44353.81 -50438.98 44353.47 -50439.31 44353.47 -52938.68 44353.81 -52938.98 44351.27 -52954.22 44343.65 -52969.46 44333.49 -52979.62 44318.25 -52987.24 44303.01 -52989.78 44302.68 -52989.47 41803.31 -52989.47"/><path d="M 41803.01 -30129.78 41787.77 -30127.24 41772.53 -30119.62 41762.37 -30109.46 41754.75 -30094.22 41752.21 -30078.98 41752.52 -30078.68 41752.52 -27579.31 41752.21 -27578.98 41754.75 -27563.74 41762.37 -27548.5 41772.53 -27538.34 41787.77 -27530.72 41803.01 -27528.18 41803.31 -27528.52 44302.68 -27528.52 44303.01 -27528.18 44318.25 -27530.72 44333.49 -27538.34 44343.65 -27548.5 44351.27 -27563.74 44353.81 -27578.98 44353.47 -27579.31 44353.47 -30078.68 44353.81 -30078.98 44351.27 -30094.22 44343.65 -30109.46 44333.49 -30119.62 44318.25 -30127.24 44303.01 -30129.78 44302.68 -30129.47 41803.31 -30129.47"/><path d="M 28087.01 -30129.78 28071.77 -30127.24 28056.53 -30119.62 28046.37 -30109.46 28038.75 -30094.22 28036.21 -30078.98 28036.52 -30078.68 28036.52 -27579.31 28036.21 -27578.98 28038.75 -27563.74 28046.37 -27548.5 28056.53 -27538.34 28071.77 -27530.72 28087.01 -27528.18 28087.31 -27528.52 30586.68 -27528.52 30587.01 -27528.18 30602.25 -27530.72 30617.49 -27538.34 30627.65 -27548.5 30635.27 -27563.74 30637.81 -27578.98 30637.47 -27579.31 30637.47 -30078.68 30637.81 -30078.98 30635.27 -30094.22 30627.65 -30109.46 30617.49 -30119.62 30602.25 -30127.24 30587.01 -30129.78 30586.68 -30129.47 28087.31 -30129.47"/><path d="M 31135.01 -30129.78 31119.77 -30127.24 31104.53 -30119.62 31094.37 -30109.46 31086.75 -30094.22 31084.21 -30078.98 31084.52 -30078.68 31084.52 -27579.31 31084.21 -27578.98 31086.75 -27563.74 31094.37 -27548.5 31104.53 -27538.34 31119.77 -27530.72 31135.01 -27528.18 31135.31 -27528.52 33634.68 -27528.52 33635.01 -27528.18 33650.25 -27530.72 33665.49 -27538.34 33675.65 -27548.5 33683.27 -27563.74 33685.81 -27578.98 33685.47 -27579.31 33685.47 -30078.68 33685.81 -30078.98 33683.27 -30094.22 33675.65 -30109.46 33665.49 -30119.62 33650.25 -30127.24 33635.01 -30129.78 33634.68 -30129.47 31135.31 -30129.47"/><path d="M 38755.01 -30129.78 38739.77 -30127.24 38724.53 -30119.62 38714.37 -30109.46 38706.75 -30094.22 38704.21 -30078.98 38704.52 -30078.68 38704.52 -27579.31 38704.21 -27578.98 38706.75 -27563.74 38714.37 -27548.5 38724.53 -27538.34 38739.77 -27530.72 38755.01 -27528.18 38755.31 -27528.52 41254.68 -27528.52 41255.01 -27528.18 41270.25 -27530.72 41285.49 -27538.34 41295.65 -27548.5 41303.27 -27563.74 41305.81 -27578.98 41305.47 -27579.31 41305.47 -30078.68 41305.81 -30078.98 41303.27 -30094.22 41295.65 -30109.46 41285.49 -30119.62 41270.25 -30127.24 41255.01 -30129.78 41254.68 -30129.47 38755.31 -30129.47"/><use xlink:href="#oP2MsBzwzKkp5C4UwSg7_pad-27" x="49911" y="-29877"/><use xlink:href="#oP2MsBzwzKkp5C4UwSg7_pad-27" x="49911" y="-21176.99"/><use xlink:href="#oP2MsBzwzKkp5C4UwSg7_pad-27" x="49911" y="-9746.99"/><use xlink:href="#oP2MsBzwzKkp5C4UwSg7_pad-27" x="49911" y="-18447"/><path d="M 41503.59 -23952.2 41488.35 -23949.65 41473.11 -23942.04 41462.95 -23931.87 41455.33 -23916.63 41452.79 -23901.39 41452.79 -23901.39 41452.79 -22326.6 41452.79 -22326.6 41455.33 -22311.36 41462.95 -22296.12 41473.11 -22285.95 41488.35 -22278.34 41503.59 -22275.79 43078.4 -22275.79 43093.64 -22278.34 43108.88 -22285.95 43119.04 -22296.12 43126.66 -22311.36 43129.2 -22326.6 43129.2 -22326.6 43129.2 -23901.39 43129.2 -23901.39 43126.66 -23916.63 43119.04 -23931.87 43108.88 -23942.04 43093.64 -23949.65 43078.4 -23952.2"/><use xlink:href="#oP2MsBzwzKkp5C4UwSg7_pad-29" x="44831" y="-23114"/><path d="M 14452.6 -3759.2 14437.36 -3756.65 14422.12 -3749.04 14411.95 -3738.87 14404.34 -3723.63 14401.79 -3708.39 14401.79 -2133.6 14404.34 -2118.36 14411.95 -2103.12 14422.12 -2092.95 14437.36 -2085.34 14452.6 -2082.79 16027.39 -2082.79 16042.63 -2085.34 16057.87 -2092.95 16068.04 -2103.12 16075.65 -2118.36 16078.2 -2133.6 16078.2 -3708.39 16075.65 -3723.63 16068.04 -3738.87 16057.87 -3749.04 16042.63 -3756.65 16027.39 -3759.2"/><use xlink:href="#oP2MsBzwzKkp5C4UwSg7_pad-29" x="12700" y="-2921"/><use xlink:href="#oP2MsBzwzKkp5C4UwSg7_pad-29" x="10160" y="-2921"/><use xlink:href="#oP2MsBzwzKkp5C4UwSg7_pad-29" x="7620" y="-2921"/><use xlink:href="#oP2MsBzwzKkp5C4UwSg7_pad-30" x="39412.92" y="-23114"/><use xlink:href="#oP2MsBzwzKkp5C4UwSg7_pad-30" x="28913.07" y="-23114"/><use xlink:href="#oP2MsBzwzKkp5C4UwSg7_pad-31" x="37464.97" y="-5079.92"/><use xlink:href="#oP2MsBzwzKkp5C4UwSg7_pad-31" x="40004.94" y="-5079.92"/><use xlink:href="#oP2MsBzwzKkp5C4UwSg7_pad-31" x="42544.97" y="-5079.92"/><use xlink:href="#oP2MsBzwzKkp5C4UwSg7_pad-31" x="34924.97" y="-5079.92"/><use xlink:href="#oP2MsBzwzKkp5C4UwSg7_pad-31" x="32384.94" y="-5079.92"/><use xlink:href="#oP2MsBzwzKkp5C4UwSg7_pad-31" x="37464.97" y="-15239.92"/><use xlink:href="#oP2MsBzwzKkp5C4UwSg7_pad-31" x="34924.97" y="-15239.92"/><use xlink:href="#oP2MsBzwzKkp5C4UwSg7_pad-31" x="32384.97" y="-15239.92"/><use xlink:href="#oP2MsBzwzKkp5C4UwSg7_pad-31" x="29844.97" y="-15239.92"/><use xlink:href="#oP2MsBzwzKkp5C4UwSg7_pad-31" x="40004.97" y="-15239.92"/><use xlink:href="#oP2MsBzwzKkp5C4UwSg7_pad-31" x="42544.97" y="-15239.92"/><use xlink:href="#oP2MsBzwzKkp5C4UwSg7_pad-31" x="45084.97" y="-15239.92"/></g><g id="i2lIwPJ1NwT-6eWyGlmk_top_drill1"><path d="M 48006 -40020 48006 -38720 M 50706 -40020 50706 -38720 M 48006 -44020 48006 -42720 M 50706 -44020 50706 -42720 M 48006 -48020 48006 -46720 M 50706 -48020 50706 -46720" fill="none" stroke-width="600"/><use xlink:href="#apbMQ2ZoeKhPnfW1hbpq_pad-2" x="39413" y="-23114"/><use xlink:href="#apbMQ2ZoeKhPnfW1hbpq_pad-2" x="28913" y="-23114"/><use xlink:href="#apbMQ2ZoeKhPnfW1hbpq_pad-3" x="42291" y="-23114"/><use xlink:href="#apbMQ2ZoeKhPnfW1hbpq_pad-3" x="44831" y="-23114"/><use xlink:href="#apbMQ2ZoeKhPnfW1hbpq_pad-3" x="15240" y="-2921"/><use xlink:href="#apbMQ2ZoeKhPnfW1hbpq_pad-3" x="12700" y="-2921"/><use xlink:href="#apbMQ2ZoeKhPnfW1hbpq_pad-3" x="10160" y="-2921"/><use xlink:href="#apbMQ2ZoeKhPnfW1hbpq_pad-3" x="7620" y="-2921"/><use xlink:href="#apbMQ2ZoeKhPnfW1hbpq_pad-4" x="49911" y="-29877"/><use xlink:href="#apbMQ2ZoeKhPnfW1hbpq_pad-4" x="49911" y="-21177"/><use xlink:href="#apbMQ2ZoeKhPnfW1hbpq_pad-4" x="49911" y="-9747"/><use xlink:href="#apbMQ2ZoeKhPnfW1hbpq_pad-4" x="49911" y="-18447"/><path d="M 29337 -51692 29337 -51686 M 43053 -51692 43053 -51686 M 43053 -28832 43053 -28826 M 29337 -28832 29337 -28826 M 32385 -28832 32385 -28826 M 40005 -28832 40005 -28826" fill="none" stroke-width="1000"/><use xlink:href="#apbMQ2ZoeKhPnfW1hbpq_pad-5" x="37465" y="-5080"/><use xlink:href="#apbMQ2ZoeKhPnfW1hbpq_pad-5" x="40005" y="-5080"/><use xlink:href="#apbMQ2ZoeKhPnfW1hbpq_pad-5" x="42545" y="-5080"/><use xlink:href="#apbMQ2ZoeKhPnfW1hbpq_pad-5" x="34925" y="-5080"/><use xlink:href="#apbMQ2ZoeKhPnfW1hbpq_pad-5" x="32385" y="-5080"/><use xlink:href="#apbMQ2ZoeKhPnfW1hbpq_pad-5" x="37465" y="-15240"/><use xlink:href="#apbMQ2ZoeKhPnfW1hbpq_pad-5" x="34925" y="-15240"/><use xlink:href="#apbMQ2ZoeKhPnfW1hbpq_pad-5" x="32385" y="-15240"/><use xlink:href="#apbMQ2ZoeKhPnfW1hbpq_pad-5" x="29845" y="-15240"/><use xlink:href="#apbMQ2ZoeKhPnfW1hbpq_pad-5" x="40005" y="-15240"/><use xlink:href="#apbMQ2ZoeKhPnfW1hbpq_pad-5" x="42545" y="-15240"/><use xlink:href="#apbMQ2ZoeKhPnfW1hbpq_pad-5" x="45085" y="-15240"/><use xlink:href="#apbMQ2ZoeKhPnfW1hbpq_pad-5" x="2032" y="-26670"/><use xlink:href="#apbMQ2ZoeKhPnfW1hbpq_pad-5" x="24892" y="-44450"/><use xlink:href="#apbMQ2ZoeKhPnfW1hbpq_pad-5" x="24892" y="-41910"/><use xlink:href="#apbMQ2ZoeKhPnfW1hbpq_pad-5" x="24892" y="-39370"/><use xlink:href="#apbMQ2ZoeKhPnfW1hbpq_pad-5" x="24892" y="-36830"/><use xlink:href="#apbMQ2ZoeKhPnfW1hbpq_pad-5" x="24892" y="-34290"/><use xlink:href="#apbMQ2ZoeKhPnfW1hbpq_pad-5" x="24892" y="-31750"/><use xlink:href="#apbMQ2ZoeKhPnfW1hbpq_pad-5" x="24892" y="-29210"/><use xlink:href="#apbMQ2ZoeKhPnfW1hbpq_pad-5" x="24892" y="-26670"/><use xlink:href="#apbMQ2ZoeKhPnfW1hbpq_pad-5" x="2032" y="-44450"/><use xlink:href="#apbMQ2ZoeKhPnfW1hbpq_pad-5" x="2032" y="-41910"/><use xlink:href="#apbMQ2ZoeKhPnfW1hbpq_pad-5" x="2032" y="-39370"/><use xlink:href="#apbMQ2ZoeKhPnfW1hbpq_pad-5" x="2032" y="-36830"/><use xlink:href="#apbMQ2ZoeKhPnfW1hbpq_pad-5" x="2032" y="-34290"/><use xlink:href="#apbMQ2ZoeKhPnfW1hbpq_pad-5" x="2032" y="-31750"/><use xlink:href="#apbMQ2ZoeKhPnfW1hbpq_pad-5" x="2032" y="-29210"/></g><g id="i2lIwPJ1NwT-6eWyGlmk_top_drill2"><use xlink:href="#bnIVATljLV8jq8ILGeb6_pad-1" x="43815" y="-7620"/><use xlink:href="#bnIVATljLV8jq8ILGeb6_pad-1" x="31115" y="-7620"/></g><clipPath id="i2lIwPJ1NwT-6eWyGlmk_top_outline"><path d="M 0 0 53999.89 0 53999.89 -53999.89 0 -53999.89 0 0" fill="none" stroke-width="254"/></clipPath><mask id="i2lIwPJ1NwT-6eWyGlmk_top_mech-mask"><g fill="#000" stroke="#000"><rect x="0" y="-53999.89" width="53999.89" height="53999.89" fill="#fff"/><use xlink:href="#i2lIwPJ1NwT-6eWyGlmk_top_drill1"/><use xlink:href="#i2lIwPJ1NwT-6eWyGlmk_top_drill2"/></g></mask><mask id="i2lIwPJ1NwT-6eWyGlmk_top_cf-mask"><g fill="#fff" stroke="#fff"><use xlink:href="#i2lIwPJ1NwT-6eWyGlmk_top_soldermask"/></g></mask><mask id="i2lIwPJ1NwT-6eWyGlmk_top_sm-mask"><g fill="#000" stroke="#000"><rect x="0" y="-53999.89" width="53999.89" height="53999.89" fill="#fff"/><use xlink:href="#i2lIwPJ1NwT-6eWyGlmk_top_soldermask"/></g></mask></defs><g transform="translate(0,-53999.89) scale(1,-1)"><g mask="url(#i2lIwPJ1NwT-6eWyGlmk_top_mech-mask)" clip-path="url(#i2lIwPJ1NwT-6eWyGlmk_top_outline)"><rect x="0" y="-53999.89" width="53999.89" height="53999.89" fill="currentColor" class="i2lIwPJ1NwT-6eWyGlmk_fr4"/><use xlink:href="#i2lIwPJ1NwT-6eWyGlmk_top_copper" fill="currentColor" stroke="currentColor" class="i2lIwPJ1NwT-6eWyGlmk_cu"/><use xlink:href="#i2lIwPJ1NwT-6eWyGlmk_top_copper" fill="currentColor" stroke="currentColor" class="i2lIwPJ1NwT-6eWyGlmk_cf" mask="url(#i2lIwPJ1NwT-6eWyGlmk_top_cf-mask)"/><g mask="url(#i2lIwPJ1NwT-6eWyGlmk_top_sm-mask)"><rect x="0" y="-53999.89" width="53999.89" height="53999.89" fill="currentColor" class="i2lIwPJ1NwT-6eWyGlmk_sm"/><use xlink:href="#i2lIwPJ1NwT-6eWyGlmk_top_silkscreen" fill="currentColor" stroke="currentColor" class="i2lIwPJ1NwT-6eWyGlmk_ss"/></g></g></g></svg>